<svg id="hair" xmlns="http://www.w3.org/2000/svg" viewBox="0 0 1000 1000">
    <path d="M558.42,406.88c-12.87,24-60,37.45-63.83,31.42-4.3-6.73,37.85-55.32,13.9-106.14" style="fill:#8d5638"/>
    <path d="M500.15,221.81C369,221.81,247.79,328.25,226,457c0,0,201.33,15.23,274.66-66.75-4.65,22.65-17.72,39.87-15.51,43.33,3.08,4.84,40.92-5.92,51.25-25.22l-3.66-5.48C582.65,421,680.23,443.46,746,375.26,702.52,285,604.61,221.81,500.15,221.81Z" style="fill:#d96e27"/>
    <path d="M331.52,454.81a51.09,51.09,0,0,1-10.35-52.64,51.12,51.12,0,0,1-47.23-58.35c-24.09,33.69-41,72.3-48,113.18A671.08,671.08,0,0,0,331.52,454.81Z" style="fill:#c65d28"/>
    <path d="M739.66,389.6C665,447,579.07,424.7,533.51,405.69c-10.14,17.94-45.26,27.89-48.15,23.36-2-3.08,8.82-17.65,13.78-37.16-74.28,80.27-259.85,72-259.85,72" style="fill:none;stroke:#592d3d;stroke-miterlimit:10;stroke-width:12px"/>
    <path d="M280.92,140.17a53.59,53.59,0,0,0-20.26,5A45.83,45.83,0,0,0,245,157a18.94,18.94,0,0,0-1.53,1.92c-.48.66-1,1.28-1.46,2a43.23,43.23,0,0,0-2.56,4.23,52.32,52.32,0,0,0-3.9,9.18,62.77,62.77,0,0,0-2.29,20.8A36.91,36.91,0,0,1,229.42,173l.53-2.86.29-1.44c.11-.47.27-.93.41-1.4.28-.94.56-1.88.87-2.81s.76-1.8,1.14-2.71a43.25,43.25,0,0,1,2.76-5.21c.51-.85,1.14-1.61,1.7-2.42a24.27,24.27,0,0,1,1.82-2.33,39.88,39.88,0,0,1,19.58-12.56A34.18,34.18,0,0,1,280.92,140.17Z" style="fill:#fff"/>
    <path d="M358.88,77.15a62.84,62.84,0,0,0-18,2,52.26,52.26,0,0,0-15.47,7.06A51.64,51.64,0,0,0,313.09,98c-.84,1.18-1.8,2.31-2.53,3.58l-1.21,1.88c-.43.62-.71,1.3-1.09,2a73.25,73.25,0,0,0-4.1,8.38,28.54,28.54,0,0,1,.39-9.7c.17-.8.27-1.63.52-2.42l.74-2.36a31.32,31.32,0,0,1,1.91-4.61A39,39,0,0,1,321,79.59,39.38,39.38,0,0,1,339.89,73,32.35,32.35,0,0,1,358.88,77.15Z" style="fill:#fff"/>
    <path d="M310.23,580.89c-.93-.52-1.89-1-2.85-1.41C308.35,578.91,310.23,580.89,310.23,580.89Z" style="fill:none;stroke:#fff;stroke-miterlimit:10;stroke-width:12px"/>
</svg>
