<svg xmlns="http://www.w3.org/2000/svg" viewBox="0 0 1000 1000"><g id="body"><path d="M610,758.72c90.76,0,72,114.24,72.87,241.28H610Z" style="fill:#fdd2b2"/><path d="M632.74,831.87,610,870l11.38,130h31.76C653.91,819.73,632.74,831.87,632.74,831.87Z" style="fill:#f3ab98"/><path d="M386.12,758.72c-90.77,0-72,114.24-72.87,241.28h72.87Z" style="fill:#fdd2b2"/><path d="M367.23,831.87,390,870l-11.39,130H346.88C346.07,819.73,367.23,831.87,367.23,831.87Z" style="fill:#f3ab98"/><path d="M619.47,1070H380.53a13.28,13.28,0,0,1-13.27-13.28V772a13.28,13.28,0,0,1,13.27-13.28H613.76c13.09,0,19,7.66,19,19.88v278.08A13.28,13.28,0,0,1,619.47,1070Z" style="fill:#fdd2b2"/><path d="M629.05,766.62a19.33,19.33,0,0,1-2.51-4,17.25,17.25,0,0,0-8.28-3.51,28.88,28.88,0,0,0-4.5-.34H380.53A13.28,13.28,0,0,0,367.26,772c29,10.42,83.29,16.24,132.74,16.24C563.06,788.24,604.38,778.89,629.05,766.62Z" style="fill:#f3ab98"/><path d="M610,758.72c90.76,0,72,114.24,72.87,241.28H632.74" style="fill:none;stroke:#592d3d;stroke-linecap:square;stroke-miterlimit:10;stroke-width:12px"/><path d="M386.12,758.72c-90.77,0-72,114.24-72.87,241.28h50.07" style="fill:none;stroke:#592d3d;stroke-linecap:square;stroke-miterlimit:10;stroke-width:12px"/><path d="M570.68,842.45C570.9,833,582.9,829,588.9,835a10.61,10.61,0,1,1-15.16,14.85A10.4,10.4,0,0,1,570.68,842.45Z" style="fill:#592d3d"/><path d="M408.11,842.15C407.9,834,416.9,830,422.9,833c8,3,8,14,0,19-4,2-8,0-11.75-2.48A10.39,10.39,0,0,1,408.11,842.15Z" style="fill:#592d3d"/><path d="M380.53,1070H497.15C388,1070,396.24,838.82,367.26,838.82v217.86A13.28,13.28,0,0,0,380.53,1070Z" style="fill:#f3ab98"/><path d="M361.26,860.85c-.19-3.67-.11-7.34.05-11s.47-7.35.86-11c.2-1.84.4-3.67.65-5.51s.49-3.67.85-5.51a44.18,44.18,0,0,1,3.59-11,43.74,43.74,0,0,1,3.58,11c.37,1.84.63,3.67.86,5.51s.45,3.67.65,5.51c.38,3.67.68,7.34.85,11s.25,7.34.06,11Z" style="fill:#592d3d"/><path d="M632.74,870v8c.26,34,.26,69,0,102.75,0,2.87,0,5.72,0,8.53v67.41A13.28,13.28,0,0,1,619.47,1070H380.53a13.28,13.28,0,0,1-13.27-13.28V998.52c0-2.51,0-5.07,0-7.65-.25-34.87-.25-69.87,0-105.3V860.85" style="fill:none;stroke:#592d3d;stroke-miterlimit:10;stroke-width:12px"/><path d="M626.74,870c-.19-4.17-.1-8.35.06-12.53s.47-8.35.85-12.53c.2-2.09.41-4.18.65-6.27s.49-4.17.86-6.26a54.55,54.55,0,0,1,3.58-12.53,55.09,55.09,0,0,1,3.59,12.53c.36,2.09.62,4.18.85,6.26s.45,4.18.65,6.27c.38,4.18.69,8.35.85,12.53s.25,8.36.06,12.53Z" style="fill:#592d3d"/><path d="M613.76,752.92c1.12,0,2.25.05,3.38.16a25.74,25.74,0,0,1,3.44.84,17.5,17.5,0,0,1,6.14,3.69c.43.4.87.81,1.26,1.23l1,1.32a18,18,0,0,1,1.76,2.76l.39.7.3.7.59,1.42c.4.94.6,1.88.9,2.82a34.16,34.16,0,0,1,.93,5.53,29.46,29.46,0,0,1,.06,5.39,25.61,25.61,0,0,1-3,10.3,68.18,68.18,0,0,1-4.14-9.4c-.54-1.5-1.07-3-1.6-4.35a41,41,0,0,0-1.81-3.94,15.67,15.67,0,0,0-4.41-5.42,10,10,0,0,0-5.26-1.75Z" style="fill:#592d3d"/><path d="M381.92,762.75a15.88,15.88,0,0,0-5.72,1.35,11.74,11.74,0,0,0-4.47,4,33.14,33.14,0,0,0-3.4,6.74c-1.07,2.51-2.11,5.2-3.63,8.07a20.53,20.53,0,0,1-2.26-9.09,22.81,22.81,0,0,1,.39-4.77,19.56,19.56,0,0,1,.55-2.42,21.05,21.05,0,0,1,.82-2.43,18.1,18.1,0,0,1,6.93-8.62,18.74,18.74,0,0,1,10.79-2.83Z" style="fill:#592d3d"/><path d="M500,831.77a27.13,27.13,0,0,1,1.5,5.84,42.47,42.47,0,0,1,.49,5.84l.3,11.69c.09,3.89.21,7.79.25,11.69l.17,11.67c.23,15.57.22,31.16.28,46.74s.18,31.16,0,46.74c-.09,7.79-.3,15.58-.53,23.37-.1,3.89-.29,7.79-.67,11.68a90.72,90.72,0,0,1-1.77,11.69,90.72,90.72,0,0,1-1.77-11.69c-.38-3.89-.57-7.79-.67-11.68-.23-7.79-.44-15.58-.53-23.37-.2-15.58,0-31.16,0-46.74s0-31.15.18-46.73l.17-11.7.33-11.68.33-11.68a44.11,44.11,0,0,1,.5-5.84A27.13,27.13,0,0,1,500,831.77Z" style="fill:#f3ab98"/><path d="M425.22,883a18.51,18.51,0,0,1,4.67-1.5,29.75,29.75,0,0,1,4.68-.5l9.35-.33,18.7-.41c12.46-.19,24.91-.24,37.38-.27s24.93-.16,37.39,0c6.23.09,12.46.3,18.7.53,3.11.11,6.23.3,9.34.67a61.34,61.34,0,0,1,9.35,1.78,59,59,0,0,1-9.35,1.77c-3.11.38-6.23.57-9.34.67-6.24.23-12.47.43-18.7.52-12.46.19-24.92,0-37.39,0s-24.93,0-37.4-.15c-6.23-.06-12.46-.26-18.68-.5l-9.35-.34a29.5,29.5,0,0,1-4.67-.5A18.45,18.45,0,0,1,425.22,883Z" style="fill:#f3ab98"/><path d="M442.41,914.38a12.51,12.51,0,0,1,3.74-1.11,18.35,18.35,0,0,1,3.62-.15c2.39.1,4.78.16,7.17.21,4.78.11,9.56.15,14.34.17,9.63,0,19.09.08,28.76-.21s19.26-.43,28.88-.39c4.81,0,9.62.13,14.42.24a70.37,70.37,0,0,1,7.23.47,38.17,38.17,0,0,1,7.27,1.53,36.56,36.56,0,0,1-7.16,2,61.08,61.08,0,0,1-7.21.86c-4.82.35-9.64.65-14.45.82-9.64.36-19.27.32-28.88.45-4.81,0-9.61.22-14.48.1s-9.69-.13-14.52-.31-9.68-.58-14.5-1.08c-2.42-.27-4.82-.57-7.23-.9a16.82,16.82,0,0,1-3.57-.84A11.51,11.51,0,0,1,442.41,914.38Z" style="fill:#f3ab98"/><path d="M438.93,949.87a13.07,13.07,0,0,1,3.82-1.5,19.13,19.13,0,0,1,3.82-.49l7.63-.32c5.09-.18,10.19-.33,15.28-.41C479.66,947,489.84,947,500,947s20.36-.17,30.54,0c5.09.09,10.18.3,15.27.53a72.73,72.73,0,0,1,7.63.66A41.2,41.2,0,0,1,561.1,950a41.25,41.25,0,0,1-7.63,1.77,70.34,70.34,0,0,1-7.64.67c-5.09.23-10.18.44-15.27.53-10.18.2-20.37.06-30.55,0s-20.36-.06-30.54-.25c-5.09-.1-10.19-.28-15.28-.49l-7.63-.37a19.33,19.33,0,0,1-3.82-.5A12.85,12.85,0,0,1,438.93,949.87Z" style="fill:#f3ab98"/><rect x="465.73" y="860.85" width="69.82" height="53.49" rx="19.11" style="fill:#fff"/><path d="M459.73,895.23a85.06,85.06,0,0,1,0-9.58q.27-4.78.86-9.57c.2-1.6.4-3.2.65-4.79s.49-3.2.85-4.79a34.86,34.86,0,0,1,3.59-9.58,34.51,34.51,0,0,1,3.58,9.58c.37,1.59.63,3.19.86,4.79s.45,3.19.64,4.79c.39,3.19.69,6.38.86,9.57a87.49,87.49,0,0,1,.06,9.58Z" style="fill:#592d3d"/><path d="M535.55,895.23a19.11,19.11,0,0,1-19.11,19.11H484.83a19.1,19.1,0,0,1-19.1-19.11" style="fill:none;stroke:#592d3d;stroke-miterlimit:10;stroke-width:12px"/><path d="M535.55,856.92a34.51,34.51,0,0,1,3.58,9.58c.37,1.59.63,3.19.86,4.79s.44,3.19.64,4.79c.39,3.19.69,6.38.86,9.57a87.49,87.49,0,0,1,.06,9.58h-12a85.06,85.06,0,0,1,.05-9.58q.27-4.78.86-9.57c.2-1.6.4-3.2.65-4.79s.48-3.2.85-4.79A34.23,34.23,0,0,1,535.55,856.92Z" style="fill:#592d3d"/></g><g id="face"><path d="M233.25,500c0-147.32,119.43-266.75,266.75-266.75S766.75,352.68,766.75,500A266.22,266.22,0,0,1,668.1,707.12q-8.21,6.68-16.94,12.69C591,758,515,758,446.39,751.89c-6.66-1-13.3-2.26-19.89-3.71-26.33-5.8-51.82-14.75-75.37-27.8Q342.4,715,334.2,708.76a199.59,199.59,0,0,1-15.8-13.38q-7.14-6.63-13.79-13.78A265.86,265.86,0,0,1,233.25,500Z" style="fill:#fdd2b2"/><path d="M269.61,634.48c.7,1.2,1.39,2.4,2.11,3.58.43.72.88,1.42,1.33,2.14.66,1.07,1.32,2.14,2,3.19.48.76,1,1.5,1.46,2.24.66,1,1.32,2,2,3,.51.76,1,1.52,1.56,2.28.66,1,1.32,1.92,2,2.88.54.77,1.1,1.53,1.65,2.3s1.34,1.85,2,2.77,1.15,1.53,1.73,2.29,1.37,1.8,2.07,2.7,1.19,1.51,1.79,2.26,1.41,1.76,2.12,2.63,1.23,1.49,1.85,2.23,1.44,1.72,2.17,2.57,1.27,1.47,1.91,2.2l2.22,2.5c.65.73,1.31,1.44,2,2.16.86.94,1.73,1.87,2.6,2.79l1.21,1.28c1.29,1.34,2.59,2.68,3.91,4l.26.27c1.29,1.28,2.6,2.55,3.91,3.81l1.58,1.5c.95.89,1.9,1.78,2.86,2.66l1.16,1.06c1,.94,2.09,1.86,3.14,2.78q4.9,4.27,10,8.19,8.19,6.24,16.93,11.62c23.55,13,49,22,75.37,27.8,6.59,1.45,13.23,2.7,19.89,3.71,42.1,3.75,87,5.18,129.28-3.08C508.45,729,185.59,612.74,388.8,257.48h0c-2.72,1.25-5.4,2.54-8.06,3.88l-.59.29c-1.22.61-2.44,1.24-3.65,1.88l-1,.53c-3.76,2-7.48,4.07-11.13,6.23l-.9.53c-1.16.69-2.31,1.39-3.46,2.1l-.87.54q-5.36,3.35-10.55,6.93l-1.08.75c-1.09.76-2.16,1.52-3.23,2.29l-.66.47q-3.27,2.39-6.46,4.84l-.62.48c-1,.78-2,1.58-3,2.39l-1.17.94c-1,.81-2,1.62-3,2.45l0,0c-2.11,1.75-4.19,3.55-6.24,5.37l-1.14,1-2.69,2.45L318,305q-4.28,4-8.37,8.17l-1.38,1.41c-.79.82-1.58,1.64-2.36,2.47-.46.49-.92,1-1.37,1.48q-2.06,2.2-4.06,4.46c-.45.51-.91,1-1.36,1.54-.71.81-1.41,1.63-2.11,2.45l-1.51,1.79c-.68.81-1.36,1.62-2,2.44-.54.66-1.08,1.33-1.61,2-1.07,1.33-2.12,2.66-3.16,4-.54.7-1.08,1.4-1.61,2.11s-1.2,1.59-1.79,2.4-1.07,1.45-1.59,2.18-1.13,1.55-1.68,2.33q-1.42,2-2.8,4.05c-.5.73-1,1.48-1.49,2.22s-1.1,1.66-1.64,2.5l-1.49,2.31-1.68,2.71c-.43.69-.86,1.38-1.28,2.07-.89,1.46-1.75,2.93-2.61,4.4l-1.22,2.16c-.54.95-1.08,1.91-1.61,2.87-.4.73-.8,1.46-1.19,2.19-.64,1.19-1.27,2.39-1.9,3.59l-1.2,2.34c-.64,1.28-1.28,2.55-1.91,3.84-.33.69-.67,1.39-1,2.09-.52,1.09-1,2.19-1.53,3.29-.31.66-.61,1.32-.91,2q-1.11,2.47-2.17,5c-.22.52-.43,1.05-.65,1.57-.53,1.27-1.05,2.54-1.56,3.82-.27.67-.53,1.34-.79,2-.5,1.26-1,2.53-1.45,3.8-.21.55-.42,1.1-.62,1.65q-.94,2.63-1.85,5.26l-.56,1.7q-.66,2-1.29,4l-.6,1.91c-.47,1.54-.93,3.08-1.37,4.63-.1.33-.2.66-.29,1q-.78,2.76-1.5,5.54c-.16.59-.3,1.19-.45,1.78-.35,1.39-.69,2.78-1,4.18l-.42,1.75c-.43,1.9-.85,3.8-1.24,5.71l-.15.77q-.51,2.55-1,5.1c-.11.61-.21,1.21-.32,1.82-.26,1.49-.51,3-.74,4.5-.08.51-.17,1-.24,1.52-.3,1.95-.57,3.91-.83,5.88l-.15,1.3c-.2,1.59-.38,3.19-.55,4.79-.06.6-.13,1.2-.19,1.81-.16,1.68-.31,3.37-.45,5.06,0,.35-.06.69-.08,1q-.22,3-.39,6.05c0,.53,0,1.07-.07,1.6q-.1,2.36-.18,4.71c0,.59,0,1.18,0,1.77,0,2.05-.08,4.11-.08,6.17,0,0,0,.07,0,.1,0,2.22,0,4.42.08,6.62,0,.76.06,1.52.08,2.28.05,1.47.1,2.94.17,4.41,0,.89.11,1.77.16,2.66.08,1.33.15,2.66.25,4,.07,1,.16,1.89.24,2.83.11,1.26.21,2.52.34,3.77.09,1,.21,1.94.31,2.91.14,1.21.27,2.43.42,3.64.12,1,.26,2,.39,2.95.16,1.18.32,2.37.5,3.55.15,1,.31,2,.47,3,.18,1.16.37,2.33.57,3.49.18,1,.36,2,.55,3,.21,1.15.43,2.3.65,3.44s.41,2,.62,3c.24,1.14.48,2.27.74,3.4s.44,2,.68,2.93c.26,1.13.54,2.25.82,3.36s.49,1.95.74,2.91c.3,1.12.6,2.23.91,3.34.26,1,.53,1.92.81,2.87.32,1.11.65,2.21,1,3.31s.58,1.89.88,2.84.7,2.19,1.06,3.28.62,1.87.94,2.8c.38,1.09.76,2.18,1.15,3.27.33.91.65,1.83,1,2.74l1.24,3.27c.35.89.69,1.79,1,2.68.44,1.09.89,2.19,1.34,3.28.36.86.71,1.73,1.08,2.59.47,1.12,1,2.22,1.45,3.33.37.82.73,1.65,1.1,2.47.52,1.16,1.07,2.3,1.6,3.44l1.08,2.3c.61,1.26,1.24,2.5,1.87,3.75.32.63.62,1.27.95,1.9q2.88,5.61,6,11.07C268.88,633.26,269.25,633.87,269.61,634.48Z" style="fill:#f3ab98"/><path d="M271.4,568.53c-1-28.36,18-52.36,43.28-63.56a62.37,62.37,0,0,1,8.16-2.7A70,70,0,0,1,365.05,505a71.67,71.67,0,0,1,8.93,4.16c29.53,15.89,42.79,53.25,31.36,83.46a61.68,61.68,0,0,1-4.18,8.82,54.68,54.68,0,0,1-17.51,20.83,69.25,69.25,0,0,1-7.85,5c-27.38,13-64.38,9-86.45-11.4a68.39,68.39,0,0,1-6.11-7.47,64.89,64.89,0,0,1-5.57-9.5A55.78,55.78,0,0,1,272,577.1,75.67,75.67,0,0,1,271.4,568.53Z" style="fill:#f3ab98"/><path d="M269.77,550.18c-1-28.36,18-52.36,43.28-63.56a62.23,62.23,0,0,1,8.15-2.7,70,70,0,0,1,42.22,2.68,71.54,71.54,0,0,1,8.92,4.16c29.53,15.89,42.79,53.26,31.36,83.46a59.6,59.6,0,0,1-4.18,8.82,63.85,63.85,0,0,1-4.71,7.8,64.78,64.78,0,0,1-5.68,7,63.08,63.08,0,0,1-7.12,6.07,68.37,68.37,0,0,1-7.85,5c-27.38,13-64.38,9-86.44-11.39a68.28,68.28,0,0,1-6.11-7.48,65,65,0,0,1-5.58-9.5,55.59,55.59,0,0,1-5.71-21.73A71.3,71.3,0,0,1,269.77,550.18Z" style="fill:#fff"/><circle cx="338.51" cy="550.79" r="12.24" style="fill:#592d3d"/><path d="M269.77,550.18c-1-28.36,18-52.36,43.28-63.56a62.23,62.23,0,0,1,8.15-2.7,70,70,0,0,1,42.22,2.68,71.54,71.54,0,0,1,8.92,4.16c29.53,15.89,42.79,53.26,31.36,83.46a59.6,59.6,0,0,1-4.18,8.82,63.85,63.85,0,0,1-4.71,7.8,64.78,64.78,0,0,1-5.68,7,63.08,63.08,0,0,1-7.12,6.07,68.37,68.37,0,0,1-7.85,5c-27.38,13-64.38,9-86.44-11.39a68.28,68.28,0,0,1-6.11-7.48,65,65,0,0,1-5.58-9.5,55.59,55.59,0,0,1-5.71-21.73A71.3,71.3,0,0,1,269.77,550.18Z" style="fill:none;stroke:#592d3d;stroke-miterlimit:10;stroke-width:12px"/><path d="M583.89,560.47c.43-15.13,6.67-30.09,15.1-41.33a72.82,72.82,0,0,1,7.12-8.53,69.73,69.73,0,0,1,90.17-8.95,73.27,73.27,0,0,1,6.53,5.13c27,21.45,30.12,63.14,15.32,93.23a62.31,62.31,0,0,1-4.78,6.86,72.09,72.09,0,0,1-7.58,8.13c-20.27,17.83-51.81,22.13-77.41,12.42a71.34,71.34,0,0,1-10.55-5c-17.9-10.78-30.37-31.09-33.43-52.23A62.93,62.93,0,0,1,583.89,560.47Z" style="fill:#f3ab98"/><path d="M589.38,549c.42-14.15,6.42-28.15,14.52-38.66a70.56,70.56,0,0,1,6.86-8A68.55,68.55,0,0,1,697.53,494a69.81,69.81,0,0,1,6.28,4.79c26,20.07,29,59.07,14.74,87.22a56.5,56.5,0,0,1-4.6,6.42,68.91,68.91,0,0,1-7.29,7.6c-19.51,16.68-49.86,20.71-74.49,11.62A68.79,68.79,0,0,1,622,606.9c-17.22-10.08-29.22-29.08-32.17-48.85A56.34,56.34,0,0,1,589.38,549Z" style="fill:#fff;stroke:#592d3d;stroke-miterlimit:10;stroke-width:12px"/><circle cx="659.21" cy="550.79" r="12.24" style="fill:#592d3d"/><path d="M233.25,500c0-147.32,119.43-266.75,266.75-266.75S766.75,352.68,766.75,500A266.22,266.22,0,0,1,668.1,707.12q-8.21,6.68-16.94,12.69C591,758,515,758,446.39,751.89c-6.66-1-13.3-2.26-19.89-3.71-26.33-5.8-51.82-14.75-75.37-27.8Q342.4,715,334.2,708.76a199.59,199.59,0,0,1-15.8-13.38q-7.14-6.63-13.79-13.78A265.86,265.86,0,0,1,233.25,500Z" style="fill:none;stroke:#592d3d;stroke-miterlimit:10;stroke-width:12px"/><path d="M718.86,616.54c-10.23,5.05-20.32,9.55-31.34,12.69a97.34,97.34,0,0,1-16.46,3.3,141.1,141.1,0,0,1-17.69.3A144.2,144.2,0,0,1,633,630.91c-1.93-.31-4.13.51-4.62,2.62-.41,1.81.55,4.28,2.62,4.62a162.21,162.21,0,0,0,19.66,2.09c3.19.14,6.37.06,9.56.17a78.25,78.25,0,0,0,9.06-.21c12-1,23.62-4.28,34.76-8.76,6.32-2.55,12.52-5.4,18.63-8.42a3.77,3.77,0,0,0,1.34-5.13,3.83,3.83,0,0,0-5.13-1.35Z" style="fill:#592d3d"/><path d="M365.31,627.42c-11.37,2.16-22.4,3.8-34.06,3.83a95.68,95.68,0,0,1-17-1.36,171.78,171.78,0,0,1-35.56-11.64,3.85,3.85,0,0,0-5.13,1.35c-.95,1.62-.5,4.27,1.34,5.13a164.42,164.42,0,0,0,17.87,7.1c2.91,1,5.87,1.7,8.78,2.6a91.22,91.22,0,0,0,8.91,2.35c11.95,2.42,24.22,2.37,36.31,1,6.88-.76,13.71-1.88,20.51-3.17,2-.37,3.12-2.77,2.62-4.61a3.83,3.83,0,0,0-4.62-2.62Z" style="fill:#592d3d"/><path d="M407.29,474.84H286.65c-5.56,0-11.12-.08-16.68,0h-.24c-5.23,0-10.24,4.6-10,10a10.17,10.17,0,0,0,10,10H390.37c5.55,0,11.12.08,16.68,0h.24c5.23,0,10.24-4.6,10-10a10.18,10.18,0,0,0-10-10Z" style="fill:#592d3d"/><path d="M726.32,474.84H605.68c-5.56,0-11.12-.08-16.68,0h-.24c-5.23,0-10.24,4.6-10,10a10.17,10.17,0,0,0,10,10H709.4c5.56,0,11.12.08,16.68,0h.24c5.23,0,10.24-4.6,10-10a10.18,10.18,0,0,0-10-10Z" style="fill:#592d3d"/><path d="M499.92,896s302.13-145,231.4-263.34c0,0-16.43,37.09-84.34,37.09-76.3,0-55.08-98.18-147.06-98.18-81.42,0-78.69,98.61-149.18,98.61-62.18,0-82.22-37.52-82.22-37.52C189.73,758.92,499.92,896,499.92,896Z" style="fill:#fff"/><path d="M268.52,632.64c-18.86,30.22-15.42,61.07.7,90.5,2.77-3.42,3.7-8.39,1.77-15.46-10.18-37.45,11.06-53.87,11.06-53.87l-1.8-7.33C271.92,639,268.52,632.64,268.52,632.64Z" style="fill:#e2e2e2"/><path d="M499.92,896s302.13-145,231.4-263.34c0,0-16.43,37.09-84.34,37.09-76.3,0-55.08-98.18-147.06-98.18-81.42,0-78.69,98.61-149.18,98.61-62.18,0-82.22-37.52-82.22-37.52C189.73,758.92,499.92,896,499.92,896Z" style="fill:none;stroke:#592d3d;stroke-miterlimit:10;stroke-width:12px"/><path d="M271.82,695.86s-5.14,64.23,0,73,33.09,0,33.09,0l3.73-19.73Z" style="fill:#fff"/><path d="M538.71,665.74c-15.55,0-25.12-12.76-36.48-12.76S476.31,665.74,461,665.74s-23.73-11.11-23.73-26.51c0-16.65,16.75-46.06,62.61-46.06s65.39,27.74,65.39,45.46C565.23,655,554.27,665.74,538.71,665.74Z" style="fill:#592d3d"/><path d="M411.83,809.4s-8.38,61.24,0,69.62,53.9,0,53.9,0V850.6Z" style="fill:#fff"/><path d="M356.67,780.62s-8.42,61.61,0,70,54.24,0,54.24,0L402,793.22Z" style="fill:#fff"/><path d="M308,754.18s-7.34,53.65,0,61,47.23,0,47.23,0l-6-34.55Z" style="fill:#fff"/><rect x="465.73" y="860.85" width="69.82" height="53.49" rx="19.11" style="fill:#fff"/><path d="M459.73,895.23a85.06,85.06,0,0,1,0-9.58q.27-4.78.86-9.57c.2-1.6.4-3.2.65-4.79s.49-3.2.85-4.79a34.86,34.86,0,0,1,3.59-9.58,34.51,34.51,0,0,1,3.58,9.58c.37,1.59.63,3.19.86,4.79s.45,3.19.64,4.79c.39,3.19.69,6.38.86,9.57a87.49,87.49,0,0,1,.06,9.58Z" style="fill:#592d3d"/><path d="M728.75,690.86s5.14,64.23,0,73-33.09,0-33.09,0l-3.73-19.73Z" style="fill:#fff"/><path d="M588.74,804.4s8.38,61.24,0,69.62-53.9,0-53.9,0V845.6Z" style="fill:#fff"/><path d="M643.89,775.62s8.43,61.61,0,70-54.23,0-54.23,0l8.89-57.44Z" style="fill:#fff"/><path d="M692.62,749.18s7.34,53.65,0,61-47.23,0-47.23,0l6-34.55Z" style="fill:#fff"/><path d="M535.93,868.12c10,1.53,20.28,3,30.26,3.57a74.42,74.42,0,0,0,14.39-.22,23.17,23.17,0,0,0,2.9-.62,9,9,0,0,0,1.48-.61c-.05.07.1-.06.26-.31a7.82,7.82,0,0,0,.55-1.09,21.22,21.22,0,0,0,1-3,97.09,97.09,0,0,0,2.36-14.67c.47-5.08.83-10.24,1.17-15.41.71-10.35,1.34-20.78,2.48-31.32,1.29,5.15,2.21,10.35,3,15.57s1.34,10.46,1.72,15.73.56,10.56.49,15.91c0,2.67-.11,5.36-.29,8.08a69,69,0,0,1-1,8.34,33.06,33.06,0,0,1-1.17,4.48,18,18,0,0,1-1,2.48,11.8,11.8,0,0,1-2,2.85,14.84,14.84,0,0,1-5.24,3.3,29.05,29.05,0,0,1-4.67,1.35,62,62,0,0,1-8.61,1c-2.79.13-5.54.18-8.25.08-5.44-.16-10.78-.57-16.09-1.2s-10.51-1.4-15.85-2.44Z" style="fill:#592d3d"/><path d="M592.45,848.16c9.8-.31,19.86-.74,29.53-1.83a80.82,80.82,0,0,0,13.81-2.55,24.18,24.18,0,0,0,2.8-1,10.37,10.37,0,0,0,1-.55c.15-.08.24-.16.36-.23l.11-.08s0,0,0,0,.12-.06.26-.35a6.69,6.69,0,0,0,.45-1,22.06,22.06,0,0,0,.71-2.95,84.16,84.16,0,0,0,.88-14.27c0-4.94-.25-9.94-.47-14.95-.42-10.05-1-20.17-1-30.45a150.3,150.3,0,0,1,4.7,14.65q2,7.41,3.44,15c1,5.05,1.71,10.14,2.19,15.32.25,2.59.44,5.2.53,7.86a61.51,61.51,0,0,1-.18,8.21,31.43,31.43,0,0,1-.77,4.5,18.37,18.37,0,0,1-.86,2.52,11.71,11.71,0,0,1-1.71,2.88c-.21.24-.46.54-.65.73l-.58.55c-.38.33-.77.67-1.14.93a19.9,19.9,0,0,1-2.22,1.42,30.74,30.74,0,0,1-4.21,1.9,63.27,63.27,0,0,1-8,2.29c-2.64.59-5.24,1.08-7.85,1.46-5.21.76-10.37,1.3-15.54,1.62s-10.27.49-15.55.44Z" style="fill:#592d3d"/><path d="M647.86,808.9c9,.32,18.24.59,27.06.07,2.21-.12,4.39-.3,6.47-.59a33.42,33.42,0,0,0,5.69-1.22,9.48,9.48,0,0,0,1.67-.73c.17-.14-.08.16,0,.05a3.08,3.08,0,0,0,.38-.67,26.25,26.25,0,0,0,1.49-5.58,115.88,115.88,0,0,0,1.48-13.36c.27-4.57.49-9.18.71-13.81.45-9.27.87-18.6,1.81-28,1.31,4.57,2.3,9.19,3.14,13.82s1.51,9.31,2,14,.87,9.41,1,14.17a127.21,127.21,0,0,1-.27,14.55c-.11,1.26-.29,2.53-.52,3.85A25.93,25.93,0,0,1,699,809.6a15.34,15.34,0,0,1-1.13,2.47,11,11,0,0,1-2.25,2.66,17.13,17.13,0,0,1-4.43,2.66,38.71,38.71,0,0,1-7.83,2.28c-2.51.49-5,.82-7.42,1.09-4.88.46-9.69.69-14.48.68q-3.6,0-7.17-.13c-2.4-.08-4.73-.23-7.21-.44Z" style="fill:#592d3d"/><path d="M728.75,690.86c1.91,9,3.24,18,4.34,27.06s1.84,18.18,2,27.41c.06,2.32.05,4.64,0,7s-.16,4.71-.46,7.21a30.37,30.37,0,0,1-.73,4,12.6,12.6,0,0,1-1,2.53,11.71,11.71,0,0,1-1.72,2.51,14,14,0,0,1-4.14,3.1,24.85,24.85,0,0,1-4.07,1.63,39,39,0,0,1-7.68,1.46,58.91,58.91,0,0,1-7.35.33c-2.42,0-4.81-.15-7.18-.36s-4.67-.54-7.17-1l2-11.83,3.13.35,3.22.33c2.14.22,4.28.39,6.4.54s4.22.2,6.26.2a45.2,45.2,0,0,0,5.79-.43,15.71,15.71,0,0,0,2.37-.55,10.23,10.23,0,0,0,1.49-.65,2.72,2.72,0,0,0,.32-.2,2,2,0,0,0,.29-.63,18.94,18.94,0,0,0,.66-2.67,109.44,109.44,0,0,0,1.27-13c.46-8.92.65-18,.89-27S728.22,700,728.75,690.86Z" style="fill:#592d3d"/><path d="M535.55,895.23a19.11,19.11,0,0,1-19.11,19.11H484.83a19.1,19.1,0,0,1-19.1-19.11" style="fill:none;stroke:#592d3d;stroke-miterlimit:10;stroke-width:12px"/><path d="M535.55,856.92a34.51,34.51,0,0,1,3.58,9.58c.37,1.59.63,3.19.86,4.79s.44,3.19.64,4.79c.39,3.19.69,6.38.86,9.57a87.49,87.49,0,0,1,.06,9.58h-12a85.06,85.06,0,0,1,.05-9.58q.27-4.78.86-9.57c.2-1.6.4-3.2.65-4.79s.48-3.2.85-4.79A34.23,34.23,0,0,1,535.55,856.92Z" style="fill:#592d3d"/><path d="M358.35,790.41,354,805.63c-1.47,18.12-2.14,40.23,2.66,45s22.34,4.11,36.14,2.59C358.48,842.74,375.63,765.53,358.35,790.41Z" style="fill:#e2e2e2"/><path d="M466.81,884.92c-5.34,1-10.53,1.84-15.85,2.44s-10.65,1-16.09,1.2c-2.71.1-5.46.05-8.25-.08a61.8,61.8,0,0,1-8.61-1,29.05,29.05,0,0,1-4.67-1.35,15,15,0,0,1-5.25-3.3,12.39,12.39,0,0,1-2-2.85,19.15,19.15,0,0,1-1-2.48,31.65,31.65,0,0,1-1.17-4.48,67,67,0,0,1-1-8.34c-.18-2.72-.26-5.41-.29-8.08-.07-5.35.11-10.64.49-15.91s.95-10.51,1.72-15.73,1.7-10.42,3-15.57c1.14,10.54,1.77,21,2.48,31.32.34,5.17.69,10.33,1.17,15.41a97.09,97.09,0,0,0,2.36,14.67,22.59,22.59,0,0,0,1,3,10.88,10.88,0,0,0,.55,1.09c.17.25.31.38.27.31a9,9,0,0,0,1.48.61,23.17,23.17,0,0,0,2.9.62,74.42,74.42,0,0,0,14.39.22c10-.62,20.28-2,30.26-3.57Z" style="fill:#592d3d"/><path d="M408.11,865.16c-5.28.05-10.37-.1-15.55-.44s-10.33-.86-15.54-1.62c-2.61-.38-5.21-.87-7.85-1.46a63.27,63.27,0,0,1-8-2.29,30.74,30.74,0,0,1-4.21-1.9,19,19,0,0,1-2.22-1.42c-.37-.26-.76-.6-1.14-.93l-.58-.55c-.19-.19-.45-.49-.65-.73a11.71,11.71,0,0,1-1.71-2.88,18.37,18.37,0,0,1-.86-2.52,31.43,31.43,0,0,1-.77-4.5,61.51,61.51,0,0,1-.18-8.21c.09-2.66.28-5.27.53-7.86.48-5.18,1.24-10.27,2.19-15.32s2.09-10,3.44-15a150.3,150.3,0,0,1,4.7-14.65c-.07,10.28-.61,20.4-1,30.45-.22,5-.42,10-.47,14.95a84.16,84.16,0,0,0,.88,14.27,22.06,22.06,0,0,0,.71,2.95,6.69,6.69,0,0,0,.45,1c.13.29.27.39.26.35s-.06,0,0,0l.11.08c.12.07.21.15.36.23a10.37,10.37,0,0,0,1,.55,24.18,24.18,0,0,0,2.8,1,80.82,80.82,0,0,0,13.81,2.55c9.66,1.09,19.73,1.52,29.53,1.83Z" style="fill:#592d3d"/><path d="M306.25,769.07c-1.6,16.45-3.12,41.28,1.7,46.1,5.56,5.56,29.77,2.7,41.21,1C316.09,816.39,317.63,772.28,306.25,769.07Z" style="fill:#e2e2e2"/><path d="M353.54,825.87c-2.48.21-4.81.36-7.21.44s-4.77.14-7.17.13c-4.79,0-9.6-.22-14.48-.68-2.45-.27-4.91-.6-7.42-1.09a38.53,38.53,0,0,1-7.83-2.28,17.13,17.13,0,0,1-4.43-2.66,11,11,0,0,1-2.25-2.66,15.34,15.34,0,0,1-1.13-2.47,25.93,25.93,0,0,1-1.08-4.19c-.23-1.32-.41-2.59-.52-3.85a127.21,127.21,0,0,1-.27-14.55c.12-4.76.49-9.48,1-14.17s1.18-9.36,2-14,1.83-9.25,3.14-13.82c.94,9.44,1.36,18.77,1.81,28,.22,4.63.44,9.24.71,13.81a115.88,115.88,0,0,0,1.48,13.36,26.25,26.25,0,0,0,1.49,5.58,3.08,3.08,0,0,0,.38.67c.12.11-.13-.19,0-.05a9.48,9.48,0,0,0,1.67.73,33.42,33.42,0,0,0,5.69,1.22c2.08.29,4.26.47,6.47.59,8.82.52,18.09.25,27.06-.07Z" style="fill:#592d3d"/><path d="M304.91,768.88c-31,2.49-24.92-61.2-33.92-61.2h0c-1.2,19-2.91,54.8.83,61.2C277,777.66,304.91,768.88,304.91,768.88Z" style="fill:#e2e2e2"/><path d="M271.82,695.86c.53,9.15.74,18.24,1,27.31s.42,18.11.89,27a109.44,109.44,0,0,0,1.27,13,18.94,18.94,0,0,0,.66,2.67,2,2,0,0,0,.29.63,2.72,2.72,0,0,0,.32.2,10.23,10.23,0,0,0,1.49.65,15.71,15.71,0,0,0,2.37.55,45.2,45.2,0,0,0,5.79.43c2,0,4.14-.08,6.26-.2s4.26-.32,6.4-.54l3.22-.33,3.13-.35,2,11.83c-2.49.48-4.76.79-7.16,1s-4.76.36-7.18.36a58.91,58.91,0,0,1-7.35-.33,39,39,0,0,1-7.68-1.46,24.5,24.5,0,0,1-4.07-1.63,14,14,0,0,1-4.14-3.1,11.36,11.36,0,0,1-1.72-2.51,12.6,12.6,0,0,1-1-2.53,30.37,30.37,0,0,1-.73-4c-.3-2.5-.4-4.86-.46-7.21s-.07-4.67,0-7c.21-9.23,1-18.33,2.05-27.41S269.91,704.82,271.82,695.86Z" style="fill:#592d3d"/><circle cx="389.46" cy="731.65" r="4.18" style="fill:#592d3d"/><circle cx="401.11" cy="723.4" r="2.96" style="fill:#592d3d"/><circle cx="436.19" cy="776.31" r="2.96" style="fill:#592d3d"/><circle cx="541.97" cy="779.64" r="2.96" style="fill:#592d3d"/><circle cx="552.77" cy="772.82" r="2.96" style="fill:#592d3d"/><circle cx="563.65" cy="793.11" r="2.96" style="fill:#592d3d"/><circle cx="552.77" cy="747.56" r="2.96" style="fill:#592d3d"/><circle cx="432.2" cy="764.41" r="5.37" style="fill:#592d3d"/><circle cx="445.33" cy="760.12" r="2.09" style="fill:#592d3d"/><circle cx="618.65" cy="735" r="4.18" style="fill:#592d3d"/><circle cx="500" cy="841.13" r="4.18" style="fill:#592d3d"/><circle cx="626.67" cy="716.29" r="2.96" style="fill:#592d3d"/><circle cx="637.76" cy="726.13" r="2.96" style="fill:#592d3d"/></g><g id="artboard_mask" data-name="artboard mask"><rect x="-3420" y="999.9" width="7667.25" height="229.24" style="fill:#606161"/></g></svg>