<svg xmlns="http://www.w3.org/2000/svg" viewBox="0 0 1000 1000"><g id="face"><path d="M468.41,635.27a255.08,255.08,0,0,0,55.61,0q-.42-.27-.84-.6c-.71-.54-1.46-1.18-2.38-2l-2.42-2.26c-3.8-3.52-6.34-5.22-9.26-5.73-3.75-.65-7.69,1-12.18,5.81a1,1,0,0,1-1.45,0c-4.49-4.77-8.43-6.46-12.18-5.81-2.92.51-5.46,2.21-9.27,5.73l-2.42,2.26c-.91.84-1.66,1.48-2.37,2Q468.81,635,468.41,635.27Z" style="fill:#010101"/><rect x="200.88" y="510.35" width="601.66" height="306.44" style="fill:#592d3d"/><circle cx="501.71" cy="510.35" r="300.83" style="fill:#592d3d"/><circle cx="501.71" cy="816.78" r="300.83" style="fill:#592d3d"/><path d="M612.5,758.72c90.76,0,72,114.24,72.87,241.28H612.5Z" style="fill:#fdd2b2"/><path d="M635.29,831.87,612.5,870l11.39,130h31.75C656.46,819.73,635.29,831.87,635.29,831.87Z" style="fill:#f3ab98"/><path d="M235.81,500c0-147.32,119.42-266.75,266.74-266.75S769.3,352.68,769.3,500a266.22,266.22,0,0,1-98.65,207.12q-8.21,6.68-16.94,12.69C593.55,758,517.55,758,449,751.89c-6.67-1-13.31-2.26-19.89-3.71-26.34-5.8-51.83-14.75-75.38-27.8-5.81-3.59-11.47-7.46-16.93-11.62A199.59,199.59,0,0,1,321,695.38q-7.14-6.63-13.78-13.78A265.81,265.81,0,0,1,235.81,500Z" style="fill:#fdd2b2"/><path d="M272.16,634.48c.7,1.2,1.39,2.4,2.11,3.58.44.72.89,1.42,1.33,2.14.66,1.07,1.32,2.14,2,3.19.48.76,1,1.5,1.47,2.24.65,1,1.31,2,2,3,.51.76,1,1.52,1.56,2.28.66,1,1.32,1.92,2,2.88.54.77,1.1,1.53,1.65,2.3s1.34,1.85,2,2.77,1.15,1.53,1.72,2.29l2.07,2.7c.59.76,1.19,1.51,1.79,2.26s1.41,1.76,2.12,2.63,1.23,1.49,1.85,2.23,1.44,1.72,2.17,2.57l1.91,2.2,2.22,2.5c.65.73,1.31,1.44,2,2.16.86.94,1.72,1.87,2.6,2.79l1.2,1.28c1.29,1.34,2.59,2.68,3.91,4l.27.27c1.28,1.28,2.59,2.55,3.9,3.81l1.58,1.5c.95.89,1.9,1.78,2.87,2.66l1.15,1.06c1,.94,2.09,1.86,3.14,2.78q4.9,4.27,10,8.19c5.46,4.16,11.12,8,16.93,11.62,23.55,13,49,22,75.38,27.8,6.58,1.45,13.22,2.7,19.89,3.71,42.09,3.75,87,5.18,129.27-3.08C511,729,188.14,612.74,391.36,257.48h0q-4.07,1.88-8.06,3.88l-.59.29c-1.22.61-2.44,1.24-3.65,1.88l-1,.53q-5.64,3-11.13,6.23l-.9.53c-1.16.69-2.31,1.39-3.46,2.1l-.86.54q-5.37,3.35-10.56,6.93l-1.08.75c-1.08.76-2.16,1.52-3.23,2.29l-.65.47q-3.27,2.39-6.47,4.84l-.62.48c-1,.78-2,1.58-3,2.39l-1.18.94c-1,.81-2,1.62-3,2.45l0,0c-2.11,1.75-4.18,3.55-6.24,5.37l-1.14,1-2.69,2.45L320.53,305q-4.27,4-8.37,8.17l-1.37,1.41c-.8.82-1.59,1.64-2.37,2.47l-1.37,1.48Q305,320.77,303,323c-.46.51-.92,1-1.37,1.54-.71.81-1.41,1.63-2.11,2.45L298,328.8c-.68.81-1.36,1.62-2,2.44-.54.66-1.07,1.33-1.61,2-1.06,1.33-2.11,2.66-3.15,4-.55.7-1.09,1.4-1.62,2.11s-1.2,1.59-1.79,2.4l-1.59,2.18c-.56.78-1.13,1.55-1.68,2.33-.94,1.34-1.88,2.69-2.8,4.05-.5.73-1,1.48-1.48,2.22s-1.11,1.66-1.65,2.5-1,1.54-1.48,2.31-1.13,1.8-1.69,2.71c-.43.69-.86,1.38-1.28,2.07q-1.32,2.19-2.6,4.4c-.42.72-.82,1.44-1.23,2.16-.54.95-1.08,1.91-1.61,2.87-.4.73-.8,1.46-1.19,2.19-.64,1.19-1.27,2.39-1.89,3.59-.41.78-.81,1.56-1.21,2.34-.64,1.28-1.28,2.55-1.9,3.84-.34.69-.67,1.39-1,2.09-.52,1.09-1,2.19-1.54,3.29l-.91,2q-1.11,2.47-2.17,5c-.22.52-.43,1.05-.65,1.57-.53,1.27-1,2.54-1.56,3.82-.27.67-.53,1.34-.79,2-.49,1.26-1,2.53-1.45,3.8l-.61,1.65q-1,2.63-1.86,5.26l-.56,1.7q-.66,2-1.29,4c-.2.63-.4,1.27-.59,1.91q-.72,2.31-1.38,4.63c-.1.33-.2.66-.29,1q-.78,2.76-1.5,5.54l-.45,1.78c-.35,1.39-.69,2.78-1,4.18-.14.58-.28,1.17-.41,1.75-.44,1.9-.85,3.8-1.25,5.71-.05.26-.09.51-.15.77q-.51,2.55-1,5.1l-.33,1.82c-.26,1.49-.51,3-.74,4.5l-.24,1.52q-.45,2.93-.82,5.88c-.06.43-.11.87-.16,1.3-.2,1.59-.38,3.19-.55,4.79l-.18,1.81c-.17,1.68-.32,3.37-.45,5.06l-.09,1q-.23,3-.38,6.05c0,.53-.05,1.07-.08,1.6q-.11,2.36-.18,4.71c0,.59,0,1.18-.05,1.77,0,2.05-.07,4.11-.07,6.17v.1c0,2.22,0,4.42.08,6.62,0,.76.06,1.52.08,2.28.05,1.47.1,2.94.17,4.41.05.89.11,1.77.16,2.66.08,1.33.16,2.66.25,4l.24,2.83c.11,1.26.21,2.52.34,3.77.09,1,.21,1.94.31,2.91.14,1.21.27,2.43.42,3.64.12,1,.26,2,.39,2.95.16,1.18.33,2.37.5,3.55.15,1,.31,2,.47,3,.19,1.16.37,2.33.58,3.49.17,1,.35,2,.54,3,.21,1.15.43,2.3.66,3.44s.4,2,.61,3c.24,1.14.48,2.27.74,3.4s.45,2,.68,2.93c.27,1.13.54,2.25.82,3.36s.49,1.95.75,2.91c.29,1.12.59,2.23.9,3.34.27,1,.53,1.92.81,2.87.32,1.11.65,2.21,1,3.31s.57,1.89.87,2.84.71,2.19,1.07,3.28.61,1.87.93,2.8c.38,1.09.76,2.18,1.15,3.27l1,2.74c.41,1.09.83,2.18,1.25,3.27.34.89.68,1.79,1,2.68.44,1.09.89,2.19,1.34,3.28.36.86.71,1.73,1.08,2.59.48,1.12,1,2.22,1.46,3.33.36.82.72,1.65,1.09,2.47.52,1.16,1.07,2.3,1.61,3.44.36.77.71,1.54,1.08,2.3.6,1.26,1.23,2.5,1.86,3.75l.95,1.9q2.88,5.61,6,11.07C271.43,633.26,271.8,633.87,272.16,634.48Z" style="fill:#f3ab98"/><path d="M274,586.82c-1-28.36,18-52.36,43.29-63.56a62.23,62.23,0,0,1,8.15-2.7,70,70,0,0,1,42.22,2.68,71.54,71.54,0,0,1,8.92,4.16c29.53,15.88,42.79,53.25,31.36,83.46a59.6,59.6,0,0,1-4.18,8.82,63.85,63.85,0,0,1-4.71,7.8,65.78,65.78,0,0,1-5.68,7,64,64,0,0,1-7.12,6.07,68.37,68.37,0,0,1-7.85,5c-27.38,13-64.38,9-86.44-11.4a68.18,68.18,0,0,1-6.11-7.47,65,65,0,0,1-5.58-9.5,55.59,55.59,0,0,1-5.71-21.73A73.42,73.42,0,0,1,274,586.82Z" style="fill:#f3ab98"/><path d="M272.32,568.47c-1-28.36,18-52.36,43.28-63.56a62.37,62.37,0,0,1,8.16-2.7A70,70,0,0,1,366,504.89a70.88,70.88,0,0,1,8.92,4.16c29.54,15.89,42.79,53.25,31.36,83.46a59.6,59.6,0,0,1-4.18,8.82,63.85,63.85,0,0,1-4.71,7.8,64.78,64.78,0,0,1-5.68,7,63.08,63.08,0,0,1-7.12,6.07,68.37,68.37,0,0,1-7.85,5c-27.38,13-64.38,9-86.44-11.4a67.24,67.24,0,0,1-6.11-7.47,65,65,0,0,1-5.58-9.5A55.59,55.59,0,0,1,272.87,577,71.3,71.3,0,0,1,272.32,568.47Z" style="fill:#fff;stroke:#592d3d;stroke-miterlimit:10;stroke-width:12px"/><circle cx="341.06" cy="569.08" r="12.24" style="fill:#592d3d"/><line x1="341.06" y1="500.14" x2="341.06" y2="486.4" style="fill:none;stroke:#592d3d;stroke-linecap:round;stroke-miterlimit:10;stroke-width:8px"/><line x1="354.89" y1="501.54" x2="357.65" y2="488.08" style="fill:none;stroke:#592d3d;stroke-linecap:round;stroke-miterlimit:10;stroke-width:8px"/><line x1="368.16" y1="505.69" x2="373.56" y2="493.06" style="fill:none;stroke:#592d3d;stroke-linecap:round;stroke-miterlimit:10;stroke-width:8px"/><line x1="380.32" y1="512.42" x2="388.15" y2="501.12" style="fill:none;stroke:#592d3d;stroke-linecap:round;stroke-miterlimit:10;stroke-width:8px"/><line x1="326.37" y1="501.73" x2="323.44" y2="488.3" style="fill:none;stroke:#592d3d;stroke-linecap:round;stroke-miterlimit:10;stroke-width:8px"/><line x1="313.16" y1="506.04" x2="307.6" y2="493.48" style="fill:none;stroke:#592d3d;stroke-linecap:round;stroke-miterlimit:10;stroke-width:8px"/><line x1="301.08" y1="512.92" x2="293.11" y2="501.73" style="fill:none;stroke:#592d3d;stroke-linecap:round;stroke-miterlimit:10;stroke-width:8px"/><path d="M586.44,578.76c.44-15.13,6.67-30.09,15.1-41.33a72.82,72.82,0,0,1,7.12-8.53,69.88,69.88,0,0,1,96.7-3.82c27,21.45,30.12,63.14,15.32,93.23a62.31,62.31,0,0,1-4.78,6.86,72.09,72.09,0,0,1-7.58,8.13c-20.27,17.83-51.81,22.13-77.4,12.42a71,71,0,0,1-10.56-5c-17.9-10.78-30.37-31.09-33.42-52.23A61.71,61.71,0,0,1,586.44,578.76Z" style="fill:#f3ab98"/><path d="M591.93,567.26c.42-14.15,6.42-28.15,14.53-38.66a69.47,69.47,0,0,1,6.85-8,68.55,68.55,0,0,1,86.77-8.37,69.81,69.81,0,0,1,6.28,4.79c26,20.07,29,59.07,14.74,87.22a56.5,56.5,0,0,1-4.6,6.42,68,68,0,0,1-7.29,7.6C689.71,635,659.36,639,634.73,629.9a68.91,68.91,0,0,1-10.16-4.71c-17.22-10.08-29.22-29.08-32.17-48.85A58.73,58.73,0,0,1,591.93,567.26Z" style="fill:#fff;stroke:#592d3d;stroke-miterlimit:10;stroke-width:12px"/><circle cx="661.77" cy="569.08" r="12.24" style="fill:#592d3d"/><line x1="661.16" y1="500.14" x2="661.16" y2="486.4" style="fill:none;stroke:#592d3d;stroke-linecap:round;stroke-miterlimit:10;stroke-width:8px"/><line x1="674.99" y1="501.54" x2="677.75" y2="488.08" style="fill:none;stroke:#592d3d;stroke-linecap:round;stroke-miterlimit:10;stroke-width:8px"/><line x1="688.26" y1="505.69" x2="693.66" y2="493.06" style="fill:none;stroke:#592d3d;stroke-linecap:round;stroke-miterlimit:10;stroke-width:8px"/><line x1="700.43" y1="512.42" x2="708.25" y2="501.12" style="fill:none;stroke:#592d3d;stroke-linecap:round;stroke-miterlimit:10;stroke-width:8px"/><line x1="646.48" y1="501.73" x2="643.55" y2="488.3" style="fill:none;stroke:#592d3d;stroke-linecap:round;stroke-miterlimit:10;stroke-width:8px"/><line x1="633.26" y1="506.04" x2="627.7" y2="493.48" style="fill:none;stroke:#592d3d;stroke-linecap:round;stroke-miterlimit:10;stroke-width:8px"/><line x1="621.18" y1="512.92" x2="613.21" y2="501.73" style="fill:none;stroke:#592d3d;stroke-linecap:round;stroke-miterlimit:10;stroke-width:8px"/><path d="M235.81,500c0-147.32,119.42-266.75,266.74-266.75S769.3,352.68,769.3,500a266.22,266.22,0,0,1-98.65,207.12q-8.21,6.68-16.94,12.69C593.55,758,517.55,758,449,751.89c-6.67-1-13.31-2.26-19.89-3.71-26.34-5.8-51.83-14.75-75.38-27.8-5.81-3.59-11.47-7.46-16.93-11.62A199.59,199.59,0,0,1,321,695.38q-7.14-6.63-13.78-13.78A265.81,265.81,0,0,1,235.81,500Z" style="fill:none;stroke:#592d3d;stroke-miterlimit:10;stroke-width:12px"/><path d="M602.11,466c6.86-1.69,13.74-3.26,20.68-4.57q5.22-1,10.48-1.76l1.41-.2c1.51-.21-.6.07.31,0l2.59-.32c1.89-.22,3.77-.41,5.66-.58a150.4,150.4,0,0,1,21.33-.4c1.74.1,3.48.24,5.21.41.79.08,1.58.16,2.37.26l1.42.18.56.08c2,.31,4,.65,6.09.91a4.52,4.52,0,0,1,.63.08l1.46.21c1,.14,2,.29,2.92.45a220.75,220.75,0,0,1,24.12,5.32,5,5,0,0,0,2.66-9.65c-7.15-2-14.38-3.64-21.69-4.9q-2.67-.47-5.35-.86c-1.26-.19-2.51-.36-3.77-.52l-1.47-.19c-1.09-.16.57.12-.59-.11a98.24,98.24,0,0,0-11.72-1.47c-14.8-1.18-29.7.32-44.27,2.91-8,1.41-15.85,3.19-23.7,5.12a5,5,0,0,0,2.66,9.64Z" style="fill:#592d3d"/><path d="M287.36,466.07a204.27,204.27,0,0,1,22.25-5.13c1.71-.29,3.42-.56,5.14-.8l1.39-.2c-1.11.15.43-.05.54-.06,1-.13,2-.25,3-.36,3.61-.39,7.22-.69,10.84-.88a193.61,193.61,0,0,1,21.14.06c3.52.21,7,.5,10.54.9l2.23.26,1.34.17c1.48.18-1-.15.44.06,1.78.25,3.56.51,5.33.81a219.93,219.93,0,0,1,23.23,5.17,5,5,0,0,0,2.66-9.65,221,221,0,0,0-42.84-7.53,198,198,0,0,0-44.38,1.88,202.48,202.48,0,0,0-25.52,5.65,5,5,0,0,0,2.66,9.65Z" style="fill:#592d3d"/><path d="M388.67,758.72c-90.76,0-72,114.24-72.87,241.28h72.87Z" style="fill:#fdd2b2"/><path d="M369.78,831.87,392.58,870l-11.39,130H349.43C348.62,819.73,369.78,831.87,369.78,831.87Z" style="fill:#f3ab98"/><path d="M622,1070H383.09a13.28,13.28,0,0,1-13.28-13.28V772a13.28,13.28,0,0,1,13.28-13.28H616.32c13.09,0,19,7.66,19,19.88v278.08A13.28,13.28,0,0,1,622,1070Z" style="fill:#fdd2b2"/><path d="M631.61,766.62a19,19,0,0,1-2.52-4,17.2,17.2,0,0,0-8.28-3.51,28.75,28.75,0,0,0-4.49-.34H383.09A13.28,13.28,0,0,0,369.81,772c29,10.42,83.29,16.24,132.74,16.24C565.61,788.24,606.93,778.89,631.61,766.62Z" style="fill:#f3ab98"/><path d="M612.5,758.72c90.76,0,72,114.24,72.87,241.28H635.29" style="fill:none;stroke:#592d3d;stroke-linecap:square;stroke-miterlimit:10;stroke-width:12px"/><path d="M388.67,758.72c-90.76,0-72,114.24-72.87,241.28h50.07" style="fill:none;stroke:#592d3d;stroke-linecap:square;stroke-miterlimit:10;stroke-width:12px"/><path d="M573.23,842.45c.22-9.45,12.22-13.45,18.22-7.45a10.61,10.61,0,1,1-15.16,14.85A10.44,10.44,0,0,1,573.23,842.45Z" style="fill:#592d3d"/><path d="M410.66,842.15c-.21-8.15,8.79-12.15,14.79-9.15,8,3,8,14,0,19-4,2-8,0-11.74-2.48A10.36,10.36,0,0,1,410.66,842.15Z" style="fill:#592d3d"/><path d="M383.09,758.82l233.23-.1" style="fill:none;stroke:#592d3d;stroke-miterlimit:10;stroke-width:12px"/><path d="M383.09,1070H499.7c-109.2,0-100.91-231.14-129.89-231.14v217.86A13.28,13.28,0,0,0,383.09,1070Z" style="fill:#f3ab98"/><path d="M363.81,860.85c-.19-3.67-.11-7.34.06-11s.47-7.35.85-11c.2-1.84.41-3.67.65-5.51s.49-3.67.85-5.51a44.18,44.18,0,0,1,3.59-11,44.18,44.18,0,0,1,3.59,11c.36,1.84.62,3.67.85,5.51s.45,3.67.65,5.51q.59,5.5.86,11c.16,3.67.24,7.34.05,11Z" style="fill:#592d3d"/><path d="M635.29,870v8c.26,34,.26,69,0,102.75,0,2.87,0,5.72,0,8.53v67.41A13.28,13.28,0,0,1,622,1070H383.09a13.28,13.28,0,0,1-13.28-13.28V990.87c-.26-34.87-.26-69.87,0-105.3V860.85" style="fill:none;stroke:#592d3d;stroke-miterlimit:10;stroke-width:12px"/><path d="M629.29,870c-.19-4.17-.1-8.35.06-12.53s.47-8.35.86-12.53c.2-2.09.4-4.18.64-6.27s.49-4.17.86-6.26a54.55,54.55,0,0,1,3.58-12.53,54.58,54.58,0,0,1,3.59,12.53c.36,2.09.63,4.18.85,6.26s.45,4.18.65,6.27c.39,4.18.69,8.35.85,12.53s.26,8.36.06,12.53Z" style="fill:#592d3d"/><path d="M616.32,752.92c1.12,0,2.25.05,3.37.16a25.37,25.37,0,0,1,3.44.84,17.5,17.5,0,0,1,6.14,3.69c.43.4.87.81,1.26,1.23l1.06,1.32a19.69,19.69,0,0,1,1.76,2.76l.38.7.3.7.6,1.42c.39.94.6,1.88.89,2.82a35.33,35.33,0,0,1,.94,5.53,30.37,30.37,0,0,1,0,5.39,25.61,25.61,0,0,1-3,10.3,68.18,68.18,0,0,1-4.14-9.4c-.54-1.5-1.06-3-1.6-4.35a41,41,0,0,0-1.81-3.94,15.45,15.45,0,0,0-4.41-5.42,10,10,0,0,0-5.25-1.75Z" style="fill:#592d3d"/><path d="M384.47,762.75a15.88,15.88,0,0,0-5.72,1.35,11.72,11.72,0,0,0-4.46,4,32.65,32.65,0,0,0-3.41,6.74c-1.06,2.51-2.1,5.2-3.63,8.07a20.67,20.67,0,0,1-2.26-9.09,22.81,22.81,0,0,1,.39-4.77,21.56,21.56,0,0,1,.55-2.42,19.37,19.37,0,0,1,.83-2.43,18,18,0,0,1,6.92-8.62,18.76,18.76,0,0,1,10.79-2.83Z" style="fill:#592d3d"/><path d="M502.55,831.77a27.13,27.13,0,0,1,1.5,5.84,44.11,44.11,0,0,1,.5,5.84l.29,11.69c.09,3.89.21,7.79.25,11.69l.18,11.67c.22,15.57.21,31.16.27,46.74s.18,31.16,0,46.74c-.09,7.79-.29,15.58-.53,23.37-.1,3.89-.28,7.79-.67,11.68a90.72,90.72,0,0,1-1.77,11.69,94.35,94.35,0,0,1-1.77-11.69c-.38-3.89-.56-7.79-.67-11.68-.23-7.79-.44-15.58-.53-23.37-.2-15.58-.05-31.16,0-46.74s0-31.15.18-46.73l.17-11.7.33-11.68.33-11.68a44.11,44.11,0,0,1,.5-5.84A27.13,27.13,0,0,1,502.55,831.77Z" style="fill:#f3ab98"/><path d="M427.77,883a18.45,18.45,0,0,1,4.68-1.5,29.5,29.5,0,0,1,4.67-.5l9.35-.33,18.7-.41c12.46-.19,24.91-.24,37.38-.27s24.93-.16,37.39,0c6.24.09,12.47.3,18.7.53,3.11.11,6.23.3,9.35.67a61.44,61.44,0,0,1,9.34,1.78,59.05,59.05,0,0,1-9.34,1.77c-3.12.38-6.24.57-9.35.67-6.23.23-12.47.43-18.7.52-12.46.19-24.92,0-37.39,0s-24.92,0-37.39-.15c-6.24-.06-12.47-.26-18.69-.5l-9.35-.34a29.63,29.63,0,0,1-4.67-.5A18.45,18.45,0,0,1,427.77,883Z" style="fill:#f3ab98"/><path d="M445,914.38a12.6,12.6,0,0,1,3.74-1.11,18.35,18.35,0,0,1,3.62-.15c2.39.1,4.78.16,7.17.21,4.78.11,9.56.15,14.34.17,9.63,0,19.09.08,28.76-.21s19.26-.43,28.88-.39c4.81,0,9.62.13,14.43.24a70.18,70.18,0,0,1,7.22.47,38.17,38.17,0,0,1,7.27,1.53,36.36,36.36,0,0,1-7.16,2A60.84,60.84,0,0,1,546,918c-4.82.35-9.63.65-14.45.82-9.63.36-19.26.32-28.88.45-4.81,0-9.61.22-14.48.1s-9.69-.13-14.51-.31S464,918.5,459.19,918q-3.62-.4-7.23-.9a16.59,16.59,0,0,1-3.56-.84A11.56,11.56,0,0,1,445,914.38Z" style="fill:#f3ab98"/><path d="M441.48,949.87a13.18,13.18,0,0,1,3.82-1.5,19.22,19.22,0,0,1,3.82-.49l7.64-.32c5.09-.18,10.18-.33,15.27-.41,10.18-.14,20.36-.14,30.54-.17s20.36-.17,30.54,0c5.09.09,10.18.3,15.27.53a72.92,72.92,0,0,1,7.64.66,41.29,41.29,0,0,1,7.63,1.78,41.25,41.25,0,0,1-7.63,1.77,70.34,70.34,0,0,1-7.64.67c-5.09.23-10.18.44-15.27.53-10.18.2-20.36.06-30.55,0s-20.36-.06-30.54-.25c-5.09-.1-10.18-.28-15.27-.49l-7.64-.37a19.14,19.14,0,0,1-3.81-.5A12.8,12.8,0,0,1,441.48,949.87Z" style="fill:#f3ab98"/><path d="M561.29,392.34c-12.87,24-60,37.44-63.83,31.42-4.3-6.73,37.84-55.32,13.9-106.14" style="fill:#f3ab98"/><path d="M755,384.64C709,292,613.36,228.23,502.85,228.23c-138.79,0-254.1,100.48-277.18,232.66,0,0,200,8.67,277.1-76.26C502.77,384.63,641.25,469.55,755,384.64Z" style="fill:#592d3d"/><path d="M537.23,398.81C526.9,418.12,489.07,428.88,486,424c-3.45-5.4,30.38-44.42,11.16-85.22" style="fill:#592d3d"/><path d="M560.41,648.36l-.56-2.28C487.07,662.7,440,647.21,440,647.21l-1.83-.32a1.84,1.84,0,0,0,.49,1.78c18.05,18.05,34,30.45,61.79,30.45C529.93,679.12,542.43,666.22,560.41,648.36Z" style="fill:#f3ab98"/><path d="M558.55,642.44c-3.63,0-5.35-1.31-15.58-10.79-7.49-6.93-12.63-10.36-18.91-11.46-7.83-1.37-15.83-.88-24.36,7.68-8.53-8.56-16.52-9-24.36-7.68-6.28,1.1-11.42,4.53-18.91,11.46-10.23,9.48-11.95,10.79-15.58,10.79a1.84,1.84,0,0,0-1.3,3.14q26.25,26.25,60.15,26.28t60.15-26.28A1.84,1.84,0,0,0,558.55,642.44Z" style="fill:#dd3e3e"/><path d="M559.57,645.84l-.55-2.21c-70.56,16.12-118.17.53-118.17.53l-1.77-.31a1.82,1.82,0,0,0,.47,1.73q26.25,26.25,60.15,26.28Q533.38,671.86,559.57,645.84Z" style="fill:#c43333"/><path d="M479.28,650.39l10-.08c1.67,0,3.34-.07,5-.13s3.33-.1,5-.15c6.66-.3,13.32-.7,19.95-1.38q5-.52,9.92-1.2c3.3-.44,6.6-.92,9.88-1.47q9.84-1.66,19.6-3.81l.67,2.92c-6.55,1.52-13.16,2.8-19.81,3.79-3.32.52-6.66,1-10,1.34s-6.69.66-10,.92c-6.71.48-13.43.76-20.15.64q-5,0-10.06-.4C485.94,651.18,482.6,650.82,479.28,650.39Z" style="fill:#592d3d"/><path d="M441.32,642.73c1.77.52,3.66,1,5.5,1.5l5.59,1.44,5.62,1.4a53.41,53.41,0,0,1,5.61,1.76,50,50,0,0,1-11.73-.67c-1.93-.29-3.86-.63-5.78-1a55.44,55.44,0,0,1-5.74-1.54Z" style="fill:#592d3d"/><path d="M558.55,642.44c-3.63,0-5.35-1.31-15.58-10.79-7.49-6.93-12.53-11.29-18.91-11.46-11.21-.3-19.15,6.12-24.76,6.12s-10.45-7.53-24-6.12c-6.34.66-11.42,4.53-18.91,11.46-10.23,9.48-11.95,10.79-15.58,10.79a1.84,1.84,0,0,0-1.3,3.14q26.25,26.25,60.15,26.28t60.15-26.28A1.84,1.84,0,0,0,558.55,642.44Z" style="fill:none;stroke:#592d3d;stroke-miterlimit:10;stroke-width:6px"/><path d="M524.06,626.48a41.49,41.49,0,0,0-12.19,2.94c-1.94.77-3.87,1.6-5.85,2.42a20.2,20.2,0,0,1-6.42,1.74,8.92,8.92,0,0,1-3.47-.64,24,24,0,0,1-3-1.4,59.7,59.7,0,0,0-5.58-2.83,27.56,27.56,0,0,0-5.94-1.73,38.5,38.5,0,0,0-6.29-.5,26.31,26.31,0,0,1,6.4-.48,24.54,24.54,0,0,1,6.38,1.25,46,46,0,0,1,5.9,2.6c1.87.94,3.71,1.83,5.52,1.74a19.76,19.76,0,0,0,5.8-1.51c2-.71,4-1.51,6-2.13A30,30,0,0,1,524.06,626.48Z" style="fill:#fff"/><path d="M472.62,651.11a1.25,1.25,0,0,0,0-2.5,1.25,1.25,0,0,0,0,2.5Z" style="fill:#592d3d"/></g><g id="artboard_mask" data-name="artboard mask"><rect x="-1136.29" y="999.9" width="7667.25" height="229.24" style="fill:#606161"/></g></svg>