<svg id="hair_back" data-name="hair back" xmlns="http://www.w3.org/2000/svg" viewBox="0 0 1000 1000">
    <path d="M501.71,209.52c-166.14,0-300.83,134.68-300.83,300.83V673.78c9.48,10.52,25.37,19.57,46,27.19L260.2,661.2l14.46,48.46c152.76,40.64,466.71,25.28,527.88-35.88V510.35C802.54,344.2,667.85,209.52,501.71,209.52Z" style="fill:#d86e27"/>
    <path d="M242.87,699.45c1.32.51,2.65,1,4,1.52L260.2,661.2l14.46,48.46c45.22,12,104.55,19.15,167.28,21.63l27.28-26.22L235.81,529.43S229.67,630.88,242.87,699.45Z" style="fill:#c65c28"/>
    <path d="M617.2,552.78l25.31,170.76c34.8-4.34,66.62-10.27,93.11-17.73h0s33.09-36.89,29.52-176.38S617.2,552.78,617.2,552.78Z" style="fill:#c65c28"/>
    <path d="M501.71,209.52c-166.14,0-300.83,134.68-300.83,300.83V673.78c9.48,10.52,25.37,19.57,46,27.19L260.2,661.2l14.46,48.46c152.76,40.64,466.71,25.28,527.88-35.88V510.35C802.54,344.2,667.85,209.52,501.71,209.52Z" style="fill:none;stroke:#592d3d;stroke-miterlimit:10;stroke-width:12px"/>
</svg>
