<svg xmlns="http://www.w3.org/2000/svg" viewBox="0 0 1000 1000">
    <g id="breast_front" data-name="breast front">
        <path d="M426.88,961.63a69.32,69.32,0,0,0,65.62-47,71,71,0,0,1-118.19,6.64L374.26,936C387,951.63,405.15,961.63,426.88,961.63Z" style="opacity:.05"/>
        <path d="M573.12,961.63a69.32,69.32,0,0,1-65.62-47,71,71,0,0,0,118.19,6.64l0,14.72C613,951.63,594.85,961.63,573.12,961.63Z" style="opacity:.05"/>
        <path d="M494.47,852.86a37.23,37.23,0,0,1,6,12.13,48.61,48.61,0,0,1,.15,27,37.23,37.23,0,0,1-5.93,12.19c.43-4.53,1-8.8,1.29-13.05s.5-8.43.48-12.63-.22-8.39-.6-12.63S495,857.38,494.47,852.86Z" style="fill:#592d3d"/>
        <path d="M505.76,852.29c-.93,5.5-1.74,10.77-2.1,16a103.31,103.31,0,0,0,2.43,31.17c1.19,5.15,2.8,10.23,4.57,15.53A44.76,44.76,0,0,1,501.6,901,55,55,0,0,1,499,867.6,44.61,44.61,0,0,1,505.76,852.29Z" style="fill:#592d3d"/>
        <path d="M407,943.81A69.33,69.33,0,0,1,380.42,831.7" style="fill:#fff"/>
        <path d="M407,943.81a57.14,57.14,0,0,1-31.21-16l-1.62-1.6c-.53-.54-1-1.13-1.53-1.69s-1-1.15-1.48-1.73a22,22,0,0,1-1.43-1.79c-.9-1.23-1.81-2.46-2.68-3.72l-2.37-3.93a69,69,0,0,1-6.71-17.13,70.52,70.52,0,0,1-1.69-18.3,64.09,64.09,0,0,1,3.4-17.93c.26-.71.49-1.43.76-2.14l.88-2.1c.55-1.4,1.26-2.74,1.91-4.09a60.79,60.79,0,0,1,4.74-7.63c.85-1.21,1.82-2.35,2.75-3.49s1.94-2.23,3-3.23a47.65,47.65,0,0,1,6.73-5.59c-5.79,10-9.9,20.19-11.66,30.67A78.09,78.09,0,0,0,367.61,878a84.63,84.63,0,0,0,2,15.41,80.81,80.81,0,0,0,5.12,14.65,76.2,76.2,0,0,0,8.08,13.47,79,79,0,0,0,10.81,11.95A115,115,0,0,0,407,943.81Z" style="fill:#592d3d"/>
        <path d="M593.05,943.81A69.33,69.33,0,0,0,619.58,831.7" style="fill:#fff"/>
        <path d="M593.05,943.81a115,115,0,0,0,13.35-10.29,79,79,0,0,0,10.81-11.95,76.2,76.2,0,0,0,8.08-13.47,80.81,80.81,0,0,0,5.12-14.65,84.63,84.63,0,0,0,2-15.41,78.09,78.09,0,0,0-1.15-15.67c-1.76-10.48-5.87-20.64-11.66-30.67a47.65,47.65,0,0,1,6.73,5.59c1.08,1,2,2.14,3,3.23s1.9,2.28,2.75,3.49a60.79,60.79,0,0,1,4.74,7.63c.65,1.35,1.36,2.69,1.91,4.09l.88,2.1c.27.71.5,1.43.76,2.14a64.09,64.09,0,0,1,3.4,17.93,70.52,70.52,0,0,1-1.69,18.3,69,69,0,0,1-6.71,17.13L633,917.26c-.87,1.26-1.78,2.49-2.68,3.72a22,22,0,0,1-1.43,1.79c-.49.58-1,1.16-1.48,1.73s-1,1.15-1.53,1.69l-1.62,1.6A57.14,57.14,0,0,1,593.05,943.81Z" style="fill:#592d3d"/>
    </g>
    <g id="artboard_mask" data-name="artboard mask">
        <rect x="-2273.24" y="-225.41" width="7667.25" height="229.24" style="fill:#606161"/>
        <rect x="-2273.24" y="999.9" width="7667.25" height="229.24" style="fill:#606161"/>
    </g>
</svg>
