<svg xmlns="http://www.w3.org/2000/svg" viewBox="0 0 1000 1000">
    <g id="breasts">
        <path d="M502.07,878.86A69.31,69.31,0,1,1,371,847.39" style="fill:none;stroke:#592d3d;stroke-miterlimit:10;stroke-width:12px"/>
        <path d="M371,847.39a69.68,69.68,0,0,1,15-19.67" style="fill:#fdd2b2"/>
        <path d="M365.65,844.66a27,27,0,0,1,3.38-5.84,37.22,37.22,0,0,1,4.53-5c.84-.76,1.69-1.5,2.58-2.19a21.1,21.1,0,0,1,2.81-1.92,15,15,0,0,1,7-2,25,25,0,0,1-1.75,6.81c-.39,1-.83,1.88-1.29,2.77l-1.3,2.67c-.85,1.76-1.69,3.49-2.55,5.19a54.51,54.51,0,0,1-2.76,5Z" style="fill:#592d3d"/>
        <path d="M489.33,838.82a69,69,0,0,1,12.74,40" style="fill:#fdd2b2"/>
        <path d="M489.33,838.82a26.55,26.55,0,0,1,8.69,7.55,38.8,38.8,0,0,1,3.1,4.79c.93,1.67,1.77,3.39,2.55,5.15a55.12,55.12,0,0,1,3.46,11,48,48,0,0,1,.94,11.53h-12c-.19-3.25-.36-6.48-.7-9.73s-.77-6.48-1.4-9.74l-.5-2.44-.58-2.45c-.42-1.63-.87-3.26-1.29-4.93A104.17,104.17,0,0,1,489.33,838.82Z" style="fill:#592d3d"/>
        <path d="M641.65,878.86a69.14,69.14,0,0,0-21.94-50.6" style="fill:#fdd2b2"/>
        <path d="M635.65,878.86A107,107,0,0,0,634.39,866a81.92,81.92,0,0,0-3.12-12.67c-.34-1-.74-2.07-1.11-3.11s-.84-2.05-1.25-3.09-.94-2-1.38-3.05l-1.46-3c-2-4.1-4.17-8.19-6.36-12.75a35.76,35.76,0,0,1,12.22,8.61c.83.94,1.7,1.86,2.47,2.85s1.54,2,2.25,3,1.43,2.09,2.07,3.18,1.31,2.18,1.88,3.32A62.19,62.19,0,0,1,646,863.58a56.6,56.6,0,0,1,1.62,15.28Z" style="fill:#592d3d"/>
        <path d="M503,878.86a69.31,69.31,0,1,0,138.61,0" style="fill:none;stroke:#592d3d;stroke-miterlimit:10;stroke-width:12px"/>
        <path d="M515.77,838.82a69,69,0,0,0-12.73,40" style="fill:#fdd2b2"/>
        <path d="M515.77,838.82a104.17,104.17,0,0,1-2.27,10.75c-.42,1.67-.87,3.3-1.29,4.93l-.57,2.45-.5,2.44c-.63,3.26-1.09,6.5-1.41,9.74s-.5,6.48-.69,9.73H497a47,47,0,0,1,.94-11.53,54.48,54.48,0,0,1,3.46-11c.77-1.76,1.61-3.48,2.54-5.15a40,40,0,0,1,3.1-4.79A26.66,26.66,0,0,1,515.77,838.82Z" style="fill:#592d3d"/>
        <line x1="383.44" y1="837.55" x2="383.44" y2="758.72" style="fill:none;stroke:#592d3d;stroke-miterlimit:10;stroke-width:12px"/>
        <line x1="616.46" y1="837.55" x2="616.46" y2="758.72" style="fill:none;stroke:#592d3d;stroke-miterlimit:10;stroke-width:12px"/>
        <path d="M470.5,897.78h53.9v19.7c-17.74-6.05-35.71-5.9-53.9,0Z" style="fill:#85c5e5;stroke:#592d3d;stroke-miterlimit:10;stroke-width:12px"/>
        <path d="M638.1,878.86a69.06,69.06,0,0,0-18.63-47.28c-4.22-4.52-44.27,6.19-67.81,27.26-23.11,20.69-43.23,54.49-40.35,58.75A69.31,69.31,0,0,0,638.1,878.86Z" style="fill:#85c5e5;stroke:#592d3d;stroke-miterlimit:10;stroke-width:12px"/>
        <path d="M598.11,848.39c-6.12,3.67-12.15,7.18-18,11a154.79,154.79,0,0,0-16.53,12.18c-5.15,4.46-10.11,9.32-15,14.26s-9.69,10-14.75,15.07a100,100,0,0,1,11.18-18.17A106.06,106.06,0,0,1,559.72,867a84.36,84.36,0,0,1,18.14-11.73A83.45,83.45,0,0,1,598.11,848.39Z" style="fill:#fff"/>
        <path d="M361.9,878.86a69.06,69.06,0,0,1,18.63-47.28c4.22-4.52,44.27,6.19,67.81,27.26,23.11,20.69,43.23,54.49,40.35,58.75A69.31,69.31,0,0,1,361.9,878.86Z" style="fill:#85c5e5;stroke:#592d3d;stroke-miterlimit:10;stroke-width:12px"/>
        <path d="M455.75,938.92a85.36,85.36,0,0,1-85.36-85.36,86.38,86.38,0,0,1,.44-8.71,69.31,69.31,0,0,0,96.31,93.29A85.67,85.67,0,0,1,455.75,938.92Z" style="fill:#68b7d6"/>
        <path d="M361.9,878.86a69.06,69.06,0,0,1,18.63-47.28c4.22-4.52,44.27,6.19,67.81,27.26,23.11,20.69,43.23,54.49,40.35,58.75A69.31,69.31,0,0,1,361.9,878.86Z" style="fill:none;stroke:#592d3d;stroke-miterlimit:10;stroke-width:12px"/>
        <path d="M401.89,848.39a83.45,83.45,0,0,1,20.25,6.87A84.36,84.36,0,0,1,440.28,867a106.06,106.06,0,0,1,14.65,15.71,100,100,0,0,1,11.18,18.17c-5.06-5-9.84-10.13-14.75-15.07s-9.84-9.8-15-14.26a154.79,154.79,0,0,0-16.53-12.18C414,855.57,408,852.06,401.89,848.39Z" style="fill:#fff"/>
    </g>
    <g id="artboard_mask" data-name="artboard mask">
        <rect x="-2273.24" y="-225.41" width="7667.25" height="229.24" style="fill:#606161"/>
        <rect x="-2273.24" y="999.9" width="7667.25" height="229.24" style="fill:#606161"/>
    </g>
</svg>
