<svg xmlns="http://www.w3.org/2000/svg" viewBox="0 0 1000 1000">
    <g id="face">
        <path d="M504,439.57c173.12,0,313.46,16.71,313.46,37.32,0-86.56-54-174.79-91.81-212.63-37-37-135.09-91.81-221.65-91.81s-185.44,55.61-221.64,91.81-91.81,126.07-91.81,212.63C190.53,456.28,330.87,439.57,504,439.57Z" style="fill:#85c5e5;fill-rule:evenodd"/>
        <path d="M282.34,264.26c-35.93,35.92-91.16,125-91.8,211.13,0,.23.05.46.07.69,1.81-10.17,37.8-19.34,94.84-25.94-5.41-68,17.95-150,92.36-247C336.2,221.86,301,245.63,282.34,264.26Z" style="fill:#68b7d6"/>
        <path d="M569.36,274.7c-86.56,0-180,23.09-261.24,60.42-37.71,17.34-72.76,37.76-103.23,60.35-8.78,26.27-14.36,54-14.36,81.42,0-20.61,140.34-37.32,313.45-37.32,106.92,0,201.32,6.37,257.89,16.1,22-46.84,17-88.84-10.46-120.55C719.15,297.79,655.91,274.7,569.36,274.7Z" style="fill:#68b7d6;fill-rule:evenodd"/>
        <path d="M504,439.57c173.12,0,313.46,16.71,313.46,37.32,0-86.56-54-174.79-91.81-212.63-37-37-135.09-91.81-221.65-91.81s-185.44,55.61-221.64,91.81-91.81,126.07-91.81,212.63C190.53,456.28,330.87,439.57,504,439.57Z" style="fill:none;stroke:#592d3d;stroke-miterlimit:10;stroke-width:12px;fill-rule:evenodd"/>
        <path d="M456.94,194.12c-14.26,4.74-28.25,9.74-42,15.36s-27.23,11.66-40.49,18.24-26.27,13.63-39,21.24L326,254.78l-4.68,3L319,259.29l-2.29,1.57L312.08,264c-1.55,1-3,2.19-4.54,3.25s-3.06,2.14-4.51,3.32-3,2.28-4.48,3.4c2.42-2.86,4.84-5.78,7.54-8.4,1.32-1.35,2.65-2.7,4-4l4.19-3.81c.7-.63,1.41-1.26,2.12-1.87l2.19-1.79L323,250.5c1.45-1.22,3-2.29,4.5-3.43l4.56-3.37a287,287,0,0,1,38.86-23.15,297.71,297.71,0,0,1,41.92-17A220.44,220.44,0,0,1,456.94,194.12Z" style="fill:#fff"/>
        <path d="M837.72,342.53c-32.26-29.3-95.5-47.42-182.06-47.42s-180,18.12-261.23,47.42S244.37,412.32,207,457l-16.51,19.78C206,458.25,358.92,443.2,532,443.2s300.89,15.05,285.4,33.61L834,457C871.28,412.32,870,371.84,837.72,342.53Z" style="fill:#68b7d6;stroke:#592d3d;stroke-miterlimit:10;stroke-width:10.922249862470395px;fill-rule:evenodd"/>
        <path d="M412.16,354.65c-15.57,6.32-31.1,12.55-46.44,19.16-3.83,1.67-7.67,3.31-11.47,5s-7.64,3.35-11.39,5.19-7.59,3.46-11.31,5.33-7.5,3.64-11.19,5.57a497.52,497.52,0,0,0-43.45,24.58A306.83,306.83,0,0,0,237,449.62c10.69-13,23.61-24.15,37.31-34a328.54,328.54,0,0,1,43.36-26.05c7.56-3.74,15.16-7.37,22.89-10.72,3.85-1.72,7.78-3.23,11.67-4.85,2-.77,3.88-1.62,5.86-2.34l5.92-2.19A434.81,434.81,0,0,1,412.16,354.65Z" style="fill:#592d3d"/>
        <path d="M652.38,314.31c-10.89,1.24-21.73,2.16-32.56,3.14l-32.44,2.9-32.45,3c-10.83,1-21.67,2-32.62,2.56a295.83,295.83,0,0,1,32-7.23q16.17-2.81,32.52-4.27t32.77-1.63A278.33,278.33,0,0,1,652.38,314.31Z" style="fill:#592d3d"/>
        <path d="M819.06,448.62a152,152,0,0,0,13.86-20,74.58,74.58,0,0,0,8.66-22.13,52.23,52.23,0,0,0,1-11.6,43,43,0,0,0-1.89-11.33A51,51,0,0,0,829,363.74a90.83,90.83,0,0,0-18.28-15,161.45,161.45,0,0,0-21.3-11.18C774.59,331.13,759,326.36,743.19,322a204.53,204.53,0,0,1,48,11.24c3.87,1.47,7.73,3,11.47,4.84s7.44,3.74,11.06,5.85a106.7,106.7,0,0,1,10.39,7.12,81.84,81.84,0,0,1,9.33,8.64,55.58,55.58,0,0,1,12.71,22.24,49.09,49.09,0,0,1,0,25.55,64.12,64.12,0,0,1-4.38,11.87,84.67,84.67,0,0,1-6.35,10.78A110.83,110.83,0,0,1,819.06,448.62Z" style="fill:#592d3d"/>
        <path d="M481.67,162.12a18.33,18.33,0,0,1,36.66,0c0,10.12-8.21,10.33-18.33,10.33S481.67,172.24,481.67,162.12Z" style="fill:#85c5e5;stroke:#592d3d;stroke-miterlimit:10;stroke-width:12px;fill-rule:evenodd"/>
    </g>
</svg>
