<svg xmlns="http://www.w3.org/2000/svg" viewBox="0 0 545.49 848.7"><g id="Layer_2" data-name="Layer 2"><g id="face"><path d="M382.69,531.47c90.76,0,72,114.24,72.87,241.28H382.69Z" style="fill:#fdd2b2"/><path d="M405.49,604.62l-22.8,38.09,11.39,130h31.75C426.65,592.47,405.49,604.62,405.49,604.62Z" style="fill:#f3ab98"/><path d="M6,272.75C6,125.43,125.43,6,272.75,6S539.49,125.43,539.49,272.75a266.26,266.26,0,0,1-98.64,207.12q-8.21,6.66-16.94,12.69c-60.16,38.19-136.16,38.19-204.77,32.08-6.67-1-13.31-2.26-19.89-3.71-26.34-5.81-51.83-14.76-75.37-27.8q-8.73-5.38-16.94-11.62a199.45,199.45,0,0,1-15.79-13.38Q84,461.49,77.36,454.34A265.78,265.78,0,0,1,6,272.75Z" style="fill:#fdd2b2"/><path d="M42.35,407.23c.7,1.19,1.4,2.39,2.12,3.57.43.72.88,1.43,1.32,2.14.66,1.07,1.32,2.14,2,3.2.48.75,1,1.49,1.46,2.24.66,1,1.31,2,2,3,.52.77,1,1.52,1.57,2.28.66,1,1.32,1.93,2,2.88.55.77,1.1,1.54,1.66,2.3.67.93,1.34,1.86,2,2.78l1.73,2.29c.68.9,1.37,1.8,2.07,2.69s1.19,1.51,1.79,2.27,1.4,1.75,2.12,2.63S67.41,443,68,443.74s1.44,1.71,2.17,2.56,1.27,1.47,1.91,2.2,1.47,1.68,2.22,2.51l2,2.16,2.6,2.79c.4.42.8.85,1.21,1.27q1.94,2,3.9,4l.27.26q1.94,1.94,3.91,3.82l1.58,1.49c.95.9,1.9,1.79,2.86,2.67l1.16,1.06c1,.93,2.08,1.86,3.13,2.78q4.91,4.26,10,8.19,8.2,6.24,16.94,11.62c23.54,13,49,22,75.37,27.8,6.58,1.45,13.22,2.7,19.89,3.71,42.1,3.75,87,5.18,129.27-3.09C281.2,501.72-41.67,385.49,161.55,30.23h0q-4.06,1.88-8.06,3.87l-.58.29c-1.23.62-2.44,1.25-3.66,1.88l-1,.53q-5.66,3-11.14,6.24l-.89.53c-1.16.69-2.32,1.39-3.47,2.1l-.86.54q-5.37,3.34-10.56,6.93l-1.08.75c-1.08.75-2.16,1.51-3.23,2.28l-.65.48q-3.27,2.37-6.47,4.84l-.62.47-3,2.39-1.18,1-3,2.44,0,0q-3.15,2.64-6.23,5.37l-1.14,1c-.91.81-1.8,1.62-2.7,2.45l-1.27,1.18c-2.84,2.66-5.64,5.38-8.37,8.16L81,87.35l-2.37,2.48L77.24,91.3q-2.05,2.2-4,4.47L71.82,97.3l-2.11,2.46-1.51,1.78c-.68.81-1.35,1.62-2,2.44-.55.67-1.08,1.34-1.62,2q-1.59,2-3.15,4l-1.62,2.11c-.6.79-1.19,1.59-1.78,2.39l-1.6,2.19c-.56.77-1.12,1.55-1.67,2.33q-1.43,2-2.81,4c-.5.74-1,1.48-1.48,2.23l-1.65,2.5-1.48,2.31c-.57.9-1.13,1.8-1.69,2.7-.42.69-.86,1.38-1.28,2.08q-1.32,2.18-2.6,4.4l-1.23,2.15c-.54,1-1.07,1.91-1.6,2.88l-1.2,2.18c-.64,1.19-1.27,2.39-1.89,3.59-.41.78-.81,1.56-1.2,2.35-.65,1.27-1.29,2.55-1.91,3.84-.34.69-.67,1.39-1,2.08-.52,1.1-1,2.19-1.54,3.29-.3.66-.61,1.32-.9,2-.74,1.64-1.47,3.3-2.18,5-.22.52-.43,1-.64,1.56-.53,1.27-1.05,2.54-1.56,3.82-.27.67-.54,1.35-.8,2-.49,1.27-1,2.53-1.44,3.81-.21.55-.42,1.09-.62,1.65-.64,1.74-1.25,3.5-1.85,5.26-.2.56-.38,1.13-.57,1.69-.44,1.32-.86,2.64-1.28,4l-.6,1.91q-.7,2.31-1.38,4.63c-.09.33-.19.66-.29,1q-.78,2.76-1.5,5.55l-.45,1.77c-.35,1.39-.69,2.79-1,4.18-.14.59-.28,1.17-.41,1.76-.43,1.89-.85,3.79-1.24,5.7l-.15.78c-.35,1.69-.67,3.39-1,5.1-.11.6-.22,1.21-.32,1.81-.26,1.5-.51,3-.75,4.51L9,232.56c-.29,2-.57,3.92-.82,5.89-.06.43-.1.86-.16,1.29-.19,1.6-.38,3.19-.55,4.8l-.18,1.8c-.17,1.69-.32,3.37-.45,5.07l-.09,1c-.15,2-.27,4-.38,6.06,0,.53,0,1.06-.07,1.59-.08,1.57-.14,3.14-.18,4.72,0,.59,0,1.18,0,1.76,0,2.06-.08,4.11-.08,6.18v.1q0,3.31.08,6.62c0,.76.06,1.51.09,2.27,0,1.47.09,2.95.16,4.41,0,.89.11,1.78.17,2.67.07,1.33.15,2.66.25,4,.07.94.16,1.88.24,2.82.1,1.26.21,2.52.33,3.77.1,1,.21,1.94.32,2.91.13,1.22.26,2.44.41,3.65.13,1,.26,2,.4,2.94.16,1.19.32,2.38.49,3.56.15,1,.31,2,.47,3,.19,1.17.38,2.33.58,3.49.17,1,.36,2,.54,3,.21,1.15.43,2.29.66,3.44.2,1,.4,2,.61,2.95s.49,2.27.74,3.4c.22,1,.45,1.95.68,2.93s.54,2.24.82,3.36l.75,2.91q.44,1.67.9,3.33l.81,2.88c.33,1.1.65,2.2,1,3.3l.87,2.84c.35,1.1.71,2.19,1.07,3.29.31.93.62,1.86.94,2.79.37,1.1.76,2.18,1.15,3.27.32.92.65,1.83,1,2.75.4,1.09.82,2.18,1.24,3.26.34.9.68,1.79,1,2.68.43,1.1.89,2.19,1.34,3.28.36.87.71,1.74,1.07,2.6.48,1.11,1,2.22,1.46,3.33.36.82.72,1.65,1.09,2.47.53,1.15,1.07,2.3,1.61,3.44.36.76.71,1.53,1.08,2.29.61,1.26,1.24,2.51,1.87,3.76.31.63.62,1.27.94,1.9q2.88,5.61,6,11.07C41.62,406,42,406.61,42.35,407.23Z" style="fill:#f3ab98"/><path d="M44.15,341.28c-1-28.36,18-52.36,43.28-63.56a62.37,62.37,0,0,1,8.16-2.7,70,70,0,0,1,42.21,2.68,68.18,68.18,0,0,1,8.92,4.16c29.54,15.88,42.79,53.25,31.36,83.46a59.6,59.6,0,0,1-4.18,8.82,63,63,0,0,1-4.71,7.79,64.89,64.89,0,0,1-5.68,7,64,64,0,0,1-7.12,6.06,65.74,65.74,0,0,1-7.85,5c-27.38,13-64.38,9-86.44-11.39A69.13,69.13,0,0,1,56,381.08a65,65,0,0,1-5.58-9.5,55.59,55.59,0,0,1-5.71-21.73A71.44,71.44,0,0,1,44.15,341.28Z" style="fill:#f3ab98"/><path d="M42.51,322.93c-1-28.36,18-52.36,43.28-63.56a62.37,62.37,0,0,1,8.16-2.7,70,70,0,0,1,42.21,2.68,68.18,68.18,0,0,1,8.92,4.16c29.54,15.88,42.79,53.25,31.37,83.46a61.68,61.68,0,0,1-4.18,8.82,64.22,64.22,0,0,1-4.71,7.79,64.89,64.89,0,0,1-5.68,7,66.73,66.73,0,0,1-15,11c-27.38,13-64.38,9-86.45-11.39a70.34,70.34,0,0,1-6.11-7.47,64,64,0,0,1-5.57-9.5,55.78,55.78,0,0,1-5.72-21.73A71.3,71.3,0,0,1,42.51,322.93Z" style="fill:#fff;stroke:#592d3d;stroke-miterlimit:10;stroke-width:12px"/><circle cx="111.25" cy="323.53" r="12.24" style="fill:#592d3d"/><path d="M356.64,333.21c.43-15.12,6.67-30.09,15.09-41.32a74.84,74.84,0,0,1,7.12-8.53A69.74,69.74,0,0,1,469,274.41a71.62,71.62,0,0,1,6.52,5.12c27,21.46,30.13,63.15,15.32,93.23a61.5,61.5,0,0,1-4.78,6.87,73,73,0,0,1-7.58,8.13c-20.27,17.83-51.81,22.13-77.4,12.41a70.46,70.46,0,0,1-10.56-5c-17.89-10.77-30.36-31.08-33.42-52.22A63,63,0,0,1,356.64,333.21Z" style="fill:#f3ab98"/><path d="M362.12,321.72c.42-14.15,6.42-28.15,14.53-38.66a68.53,68.53,0,0,1,93.62-16.35,70,70,0,0,1,6.29,4.79c26,20.07,29,59.07,14.74,87.21a59.22,59.22,0,0,1-4.6,6.43,69.89,69.89,0,0,1-7.3,7.6c-19.5,16.68-49.85,20.7-74.48,11.61a68.86,68.86,0,0,1-10.16-4.7c-17.22-10.08-29.22-29.08-32.16-48.85A57.52,57.52,0,0,1,362.12,321.72Z" style="fill:#fff;stroke:#592d3d;stroke-miterlimit:10;stroke-width:12px"/><circle cx="431.96" cy="323.53" r="12.24" style="fill:#592d3d"/><path d="M236.49,365.92c15.56,0,25.13,12.76,36.49,12.76s25.92-12.76,41.27-12.76S338,377,338,392.43c0,16.65-16.75,46.06-62.61,46.06S210,410.75,210,393C210,376.64,220.94,365.92,236.49,365.92Z" style="fill:#fff;stroke:#592d3d;stroke-miterlimit:10;stroke-width:10.781752824783325px"/><line x1="250.6" y1="369.35" x2="250.6" y2="434.85" style="fill:none;stroke:#592d3d;stroke-miterlimit:10;stroke-width:10.781752824783325px"/><line x1="299.74" y1="369.35" x2="299.74" y2="434.85" style="fill:none;stroke:#592d3d;stroke-miterlimit:10;stroke-width:10.781752824783325px"/><path d="M6,272.75C6,125.43,125.43,6,272.75,6S539.49,125.43,539.49,272.75a266.26,266.26,0,0,1-98.64,207.12q-8.21,6.66-16.94,12.69c-60.16,38.19-136.16,38.19-204.77,32.08-6.67-1-13.31-2.26-19.89-3.71-26.34-5.81-51.83-14.76-75.37-27.8q-8.73-5.38-16.94-11.62a199.45,199.45,0,0,1-15.79-13.38Q84,461.49,77.36,454.34A265.78,265.78,0,0,1,6,272.75Z" style="fill:none;stroke:#592d3d;stroke-miterlimit:10;stroke-width:12px"/><path d="M373.63,233.32a321.26,321.26,0,0,1,33.51-6.66l-2.66.36a150.31,150.31,0,0,1,39.75-.48l-2.66-.36c3.28.45,6.54,1,9.82,1.41l-2.66-.35a222.52,222.52,0,0,1,29.48,6.1c5,1.4,11.11-1.72,12.31-7a10.18,10.18,0,0,0-7-12.3A236.67,236.67,0,0,0,449,207.28l2.66.36a143,143,0,0,0-33.44-2,236.35,236.35,0,0,0-33.09,4.55c-5.62,1.14-11.2,2.43-16.76,3.8-5.09,1.26-8.62,7.26-7,12.31a10.21,10.21,0,0,0,12.3,7Z" style="fill:#592d3d"/><path d="M58.88,233.34a204.17,204.17,0,0,1,29.25-6.18l-2.66.35a195.61,195.61,0,0,1,51.39.09l-2.66-.36a222.27,222.27,0,0,1,29.44,6.1c5,1.4,11.11-1.72,12.3-7a10.18,10.18,0,0,0-7-12.3,226.63,226.63,0,0,0-44.17-7.71,208.4,208.4,0,0,0-71.23,7.71,10.4,10.4,0,0,0-6,4.59,10.19,10.19,0,0,0-1,7.71c1.65,5.1,6.92,8.54,12.3,7Z" style="fill:#592d3d"/><path d="M158.86,531.47c-90.76,0-72,114.24-72.87,241.28h72.87Z" style="fill:#fdd2b2"/><path d="M140,604.62l22.8,38.09-11.39,130H119.63C118.81,592.47,140,604.62,140,604.62Z" style="fill:#f3ab98"/><path d="M392.21,842.7H153.28A13.28,13.28,0,0,1,140,829.43V544.74a13.28,13.28,0,0,1,13.28-13.27H386.51c13.09,0,19,7.66,19,19.88V829.43A13.28,13.28,0,0,1,392.21,842.7Z" style="fill:#fdd2b2"/><path d="M401.8,539.37a19.05,19.05,0,0,1-2.52-4.06,17.29,17.29,0,0,0-8.28-3.5,28.65,28.65,0,0,0-4.49-.34H153.28A13.28,13.28,0,0,0,140,544.74C169,555.16,223.3,561,272.75,561,335.8,561,377.13,551.63,401.8,539.37Z" style="fill:#f3ab98"/><path d="M382.69,531.47c90.76,0,72,114.24,72.87,241.28H405.49" style="fill:none;stroke:#592d3d;stroke-linecap:square;stroke-miterlimit:10;stroke-width:12px"/><path d="M158.86,531.47c-90.76,0-72,114.24-72.87,241.28h50.08" style="fill:none;stroke:#592d3d;stroke-linecap:square;stroke-miterlimit:10;stroke-width:12px"/><path d="M343.42,615.2c.22-9.45,12.22-13.45,18.22-7.45a10.61,10.61,0,1,1-15.16,14.85A10.45,10.45,0,0,1,343.42,615.2Z" style="fill:#592d3d"/><path d="M180.85,614.89c-.21-8.14,8.79-12.14,14.79-9.14,8,3,8,14,0,19-4,2-8,0-11.74-2.48A10.42,10.42,0,0,1,180.85,614.89Z" style="fill:#592d3d"/><path d="M153.28,531.57l233.23-.1" style="fill:none;stroke:#592d3d;stroke-miterlimit:10;stroke-width:12px"/><path d="M153.28,842.7H269.89C160.7,842.7,169,611.56,140,611.56V829.43A13.28,13.28,0,0,0,153.28,842.7Z" style="fill:#f3ab98"/><path d="M134,633.6c-.18-3.67-.11-7.35.06-11s.47-7.34.86-11c.2-1.83.4-3.67.64-5.51s.49-3.67.86-5.5a43.61,43.61,0,0,1,3.58-11,43.25,43.25,0,0,1,3.59,11c.36,1.83.63,3.67.85,5.5s.45,3.68.65,5.51q.58,5.52.86,11c.17,3.67.24,7.35.05,11Z" style="fill:#592d3d"/><path d="M405.49,642.71v8c.26,34,.26,69,0,102.76,0,2.87,0,5.72,0,8.53v67.41a13.28,13.28,0,0,1-13.28,13.27H153.28A13.28,13.28,0,0,1,140,829.43V763.61c-.25-34.86-.25-69.86,0-105.3V633.6" style="fill:none;stroke:#592d3d;stroke-miterlimit:10;stroke-width:12px"/><path d="M399.49,642.71c-.19-4.18-.11-8.36.06-12.53s.46-8.36.85-12.53c.2-2.09.4-4.18.65-6.27s.49-4.18.85-6.27a55.38,55.38,0,0,1,3.59-12.53,54.83,54.83,0,0,1,3.58,12.53c.37,2.09.63,4.18.86,6.27s.44,4.18.64,6.27c.39,4.17.69,8.35.86,12.53s.25,8.35.06,12.53Z" style="fill:#592d3d"/><path d="M272.74,604.51a26.85,26.85,0,0,1,1.5,5.84,44.4,44.4,0,0,1,.5,5.85l.3,11.68c.08,3.9.2,7.79.25,11.69l.17,11.68c.22,15.57.22,31.16.27,46.74s.19,31.16,0,46.74c-.09,7.78-.29,15.57-.52,23.36-.11,3.9-.29,7.79-.67,11.69a94.19,94.19,0,0,1-1.77,11.68A92.38,92.38,0,0,1,271,779.78c-.38-3.9-.56-7.79-.67-11.69-.23-7.79-.43-15.57-.52-23.36-.2-15.58-.06-31.16,0-46.74s0-31.15.19-46.74l.16-11.69.34-11.68.33-11.69a44.38,44.38,0,0,1,.49-5.84A27.43,27.43,0,0,1,272.74,604.51Z" style="fill:#f3ab98"/><path d="M198,655.75a17.51,17.51,0,0,1,4.67-1.5,28.61,28.61,0,0,1,4.67-.5l9.35-.34,18.7-.41c12.46-.18,24.92-.23,37.39-.27s24.92-.16,37.39,0c6.23.09,12.46.3,18.69.53,3.12.1,6.23.29,9.35.67a60.36,60.36,0,0,1,9.35,1.78,60.55,60.55,0,0,1-9.35,1.77c-3.12.37-6.23.56-9.35.66-6.23.23-12.46.44-18.69.52-12.47.2-24.93,0-37.39,0s-24.93,0-37.4-.15c-6.24-.06-12.46-.26-18.69-.49l-9.35-.35a28.59,28.59,0,0,1-4.67-.49A18.26,18.26,0,0,1,198,655.75Z" style="fill:#f3ab98"/><path d="M215.15,687.12a12.28,12.28,0,0,1,3.74-1.1,18.4,18.4,0,0,1,3.62-.16q3.59.15,7.18.21c4.78.12,9.55.16,14.34.18,9.62,0,19.08.08,28.76-.21s19.26-.43,28.87-.39c4.81,0,9.62.12,14.43.24a67.45,67.45,0,0,1,7.22.46,38.79,38.79,0,0,1,7.27,1.53,35.69,35.69,0,0,1-7.16,2,60.86,60.86,0,0,1-7.21.87c-4.81.35-9.63.65-14.45.82-9.63.36-19.26.32-28.88.45-4.8,0-9.61.22-14.47.1s-9.69-.14-14.52-.32-9.68-.57-14.51-1.08c-2.41-.26-4.82-.57-7.22-.89a17.32,17.32,0,0,1-3.57-.85A11.24,11.24,0,0,1,215.15,687.12Z" style="fill:#f3ab98"/><path d="M211.67,722.62a13.29,13.29,0,0,1,3.82-1.5,19.33,19.33,0,0,1,3.82-.5l7.64-.32c5.09-.17,10.18-.33,15.27-.4,10.18-.14,20.36-.15,30.54-.17s20.36-.17,30.54,0c5.09.09,10.18.29,15.27.52a70.34,70.34,0,0,1,7.64.67,41.54,41.54,0,0,1,7.64,1.77,41.39,41.39,0,0,1-7.64,1.78,72.73,72.73,0,0,1-7.63.66c-5.09.24-10.18.44-15.28.53-10.18.21-20.36.07-30.54,0s-20.37-.06-30.55-.25c-5.09-.1-10.18-.29-15.27-.5l-7.64-.36a19.9,19.9,0,0,1-3.81-.5A13.29,13.29,0,0,1,211.67,722.62Z" style="fill:#f3ab98"/></g></g></svg>