<svg xmlns="http://www.w3.org/2000/svg" viewBox="0 0 1000 1000">
    <g id="face">
        <path d="M558.73,392.34c-12.86,24-60,37.44-63.83,31.42-4.29-6.73,37.85-55.32,13.9-106.14" style="fill:#f3ab98"/>
        <path d="M784,342.85c-5.1-5.1-31.06,1.83-57.19-.23A281,281,0,0,0,505.63,228.28c-2.44-20.48-.75-37.68-2.61-40.1-2.49-3.22-15.49,12.68-18.87,31-11.91-15-32.14-23-32.72-18.8-.38,2.68,7.44,14.09,14.81,29.91-111.6,13.46-203.08,92.25-235.08,197-13.86,11.92-26.86,20.34-27,25.69-.27,9.92,39.31,9.36,56.58,7.82v-.06c60.65-2,179-13.78,236.42-72.89C491.64,406.93,481.47,421,483.43,424c3,4.67,38.32-5.19,50.07-23.24,48,19.59,139.49,43.16,219-16.16l-.22-.43C766.77,372.06,790.35,349.25,784,342.85Z" style="fill:#592d3d"/>
    </g>
</svg>
