<svg xmlns="http://www.w3.org/2000/svg" width="200" viewBox="0 0 545.49 848.7">
    <g id="Layer_2" data-name="Layer 2">
        <g id="face">
            <path d="M375.85,225a315.65,315.65,0,0,1,33.51-6.66l-2.66.36a150.31,150.31,0,0,1,39.75-.49l-2.66-.35c3.27.45,6.54,1,9.81,1.41L451,219a221.29,221.29,0,0,1,29.48,6.11c5,1.4,11.1-1.73,12.3-7a10.19,10.19,0,0,0-7-12.31A237.45,237.45,0,0,0,451.16,199l2.66.35a143.55,143.55,0,0,0-33.44-1.95A236.55,236.55,0,0,0,387.29,202c-5.62,1.14-11.2,2.43-16.76,3.8-5.08,1.25-8.62,7.26-7,12.3a10.22,10.22,0,0,0,12.31,7Z" style="fill:#592d3d"/>
            <path d="M34,275l14.13-1.48L81.8,270l41-4.29L157.94,262c5.72-.6,11.44-1.18,17.16-1.8l.24,0c2.72-.29,5.07-.93,7.07-2.93a10,10,0,0,0,0-14.14c-1.84-1.69-4.48-3.2-7.07-2.93l-14.13,1.48-33.67,3.52-41,4.29L51.4,253.15c-5.72.6-11.44,1.18-17.16,1.79L34,255c-2.72.29-5.06.93-7.07,2.93a10,10,0,0,0,0,14.14c1.84,1.69,4.48,3.2,7.07,2.93Z" style="fill:#592d3d"/>
        </g>
    </g>
</svg>
