<svg xmlns="http://www.w3.org/2000/svg" viewBox="0 0 1000 1000">
    <g id="face">
        <path d="M559.29,397.34c-12.87,24-60,37.44-63.83,31.42-4.3-6.73,37.84-55.32,13.9-106.14" style="fill:#f3ab98"/>
        <path d="M746.9,365.72c-43.51-90.29-140.27-142-244.74-142-131.19,0-253.5,95-275.32,223.74,0,0,202.41,15.32,275.25-67.4C511.7,384.77,658.18,457.67,746.9,365.72Z" style="fill:#fedc58"/>
        <path d="M502.16,233.15a361.93,361.93,0,0,0-51.86,7.33l-12.68,3.05c-4.2,1.13-8.36,2.37-12.54,3.55l-12.39,4c-4.09,1.46-8.13,3-12.2,4.54a339.08,339.08,0,0,0-46.87,22.71,388.52,388.52,0,0,0-43.25,29.58,233,233,0,0,1,40.79-33.56,258.22,258.22,0,0,1,47.14-24.31c4.17-1.5,8.32-3.06,12.5-4.51,4.24-1.29,8.44-2.7,12.7-3.9s8.58-2.19,12.89-3.21,8.68-1.76,13-2.53A224.82,224.82,0,0,1,502.16,233.15Z" style="fill:#592d3d"/>
        <path d="M537.23,398.81C526.9,418.12,489.07,428.88,486,424c-3.45-5.4,30.38-44.42,11.16-85.22" style="fill:#fedc58"/>
        <path d="M240.15,454.33s185.57,8.28,259.86-72c-5,19.52-15.75,34.09-13.79,37.16,2.89,4.53,38-5.42,48.16-23.35,45.56,19,131.48,41.33,206.15-16.09" style="fill:none;stroke:#592d3d;stroke-miterlimit:10;stroke-width:12px"/>
    </g>
</svg>
