<svg xmlns="http://www.w3.org/2000/svg" viewBox="0 0 1000 1000">
    <g id="bear">
        <path d="M664.05,702.32c28.31-23,54.41-54.72,70.68-86.1-.06-.1-3.49,3.38-3.55,3.28S710.11,638.28,649.66,638c-76.3-.31-60.54-21.68-152.51-21.68-81.42,0-68.49,11.89-145.15,16.15-62.09,3.45-83.62-13-83.62-13l-.2.33a261.18,261.18,0,0,0,40.56,57.53c4.32,4.65,8.86,9.18,13.48,13.48a193.3,193.3,0,0,0,15.35,13c5.18,3.95,10.67,7.72,16.33,11.21,21.71,12,46.48,21.14,73.63,27.13,6.49,1.43,13,2.64,19.31,3.6,65.81,5.85,141.08,6.7,200.74-31.12C653.21,710.78,658.75,706.63,664.05,702.32Z" style="opacity:.15"/>
        <circle cx="311.27" cy="659.14" r="4.18" style="fill:#592d3d"/>
        <circle cx="338.27" cy="663.32" r="2.96" style="fill:#592d3d"/>
        <circle cx="400.81" cy="707.98" r="2.96" style="fill:#592d3d"/>
        <circle cx="506.59" cy="711.31" r="2.96" style="fill:#592d3d"/>
        <circle cx="517.39" cy="704.5" r="2.96" style="fill:#592d3d"/>
        <circle cx="578.09" cy="701.54" r="2.96" style="fill:#592d3d"/>
        <circle cx="581.05" cy="683.15" r="2.96" style="fill:#592d3d"/>
        <circle cx="391.45" cy="690.72" r="5.37" style="fill:#592d3d"/>
        <circle cx="600.21" cy="707.45" r="2.09" style="fill:#592d3d"/>
        <circle cx="642.72" cy="696.08" r="4.18" style="fill:#592d3d"/>
        <circle cx="462.32" cy="724.04" r="4.18" style="fill:#592d3d"/>
        <circle cx="642.72" cy="663.22" r="2.96" style="fill:#592d3d"/>
        <circle cx="653.82" cy="673.06" r="2.96" style="fill:#592d3d"/>
    </g>
</svg>
