<svg xmlns="http://www.w3.org/2000/svg" width="200" viewBox="0 0 545.49 848.7">
    <g id="Layer_2" data-name="Layer 2">
        <g id="face">
            
            <path d="M44.15,341.28c-1-28.36,18-52.36,43.28-63.56a62.37,62.37,0,0,1,8.16-2.7,70,70,0,0,1,42.21,2.68,68.18,68.18,0,0,1,8.92,4.16c29.54,15.88,42.79,53.25,31.36,83.46a59.6,59.6,0,0,1-4.18,8.82,63,63,0,0,1-4.71,7.79,64.89,64.89,0,0,1-5.68,7,64,64,0,0,1-7.12,6.06,65.74,65.74,0,0,1-7.85,5c-27.38,13-64.38,9-86.44-11.39A69.13,69.13,0,0,1,56,381.08a65,65,0,0,1-5.58-9.5,55.59,55.59,0,0,1-5.71-21.73A71.44,71.44,0,0,1,44.15,341.28Z" style="fill:#f3ab98"/>
            <path d="M42.51,322.93c-1-28.36,18-52.36,43.28-63.56a62.37,62.37,0,0,1,8.16-2.7,70,70,0,0,1,42.21,2.68,68.18,68.18,0,0,1,8.92,4.16c29.54,15.88,42.79,53.25,31.37,83.46a61.68,61.68,0,0,1-4.18,8.82,64.22,64.22,0,0,1-4.71,7.79,64.89,64.89,0,0,1-5.68,7,66.73,66.73,0,0,1-15,11c-27.38,13-64.38,9-86.45-11.39a70.34,70.34,0,0,1-6.11-7.47,64,64,0,0,1-5.57-9.5,55.78,55.78,0,0,1-5.72-21.73A71.3,71.3,0,0,1,42.51,322.93Z" style="fill:#fff"/>
            <circle cx="111.25" cy="314.53" r="12.24" style="fill:#592d3d"/>
            <path d="M172.27,355.79A60.71,60.71,0,0,0,179,338.32c-68.32-7.74-127,20.82-127,20.82l1.1,1.74c.41.62.82,1.24,1.25,1.85a70.34,70.34,0,0,0,6.11,7.47c22.07,20.37,59.07,24.37,86.45,11.39a66.73,66.73,0,0,0,15-11,64.89,64.89,0,0,0,5.68-7A64.22,64.22,0,0,0,172.27,355.79Z" style="fill:#fdd2b2;stroke:#592d3d;stroke-miterlimit:10;stroke-width:6px"/>
            <path d="M42.51,322.93c-1-28.36,18-52.36,43.28-63.56a62.37,62.37,0,0,1,8.16-2.7,70,70,0,0,1,42.21,2.68,68.18,68.18,0,0,1,8.92,4.16c29.54,15.88,42.79,53.25,31.37,83.46a61.68,61.68,0,0,1-4.18,8.82,64.22,64.22,0,0,1-4.71,7.79,64.89,64.89,0,0,1-5.68,7,66.73,66.73,0,0,1-15,11c-27.38,13-64.38,9-86.45-11.39a70.34,70.34,0,0,1-6.11-7.47,64,64,0,0,1-5.57-9.5,55.78,55.78,0,0,1-5.72-21.73A71.3,71.3,0,0,1,42.51,322.93Z" style="fill:none;stroke:#592d3d;stroke-miterlimit:10;stroke-width:12px"/>
            <path d="M138.06,400.17c-11.37,2.15-22.4,3.8-34.06,3.83a95.72,95.72,0,0,1-17-1.36,147.42,147.42,0,0,1-17-4.51A147.33,147.33,0,0,1,51.46,391a3.85,3.85,0,0,0-5.13,1.34c-.94,1.62-.5,4.28,1.35,5.13a163.68,163.68,0,0,0,17.87,7.11c2.9.95,5.86,1.7,8.78,2.6s5.88,1.73,8.9,2.35c12,2.42,24.23,2.37,36.31,1,6.88-.76,13.72-1.87,20.51-3.16a3.78,3.78,0,0,0,2.62-4.61,3.82,3.82,0,0,0-4.61-2.62Z" style="fill:#592d3d"/>
            <path d="M356.64,333.21c.43-15.12,6.67-30.09,15.09-41.32a74.84,74.84,0,0,1,7.12-8.53A69.74,69.74,0,0,1,469,274.41a71.62,71.62,0,0,1,6.52,5.12c27,21.46,30.13,63.15,15.32,93.23a61.5,61.5,0,0,1-4.78,6.87,73,73,0,0,1-7.58,8.13c-20.27,17.83-51.81,22.13-77.4,12.41a70.46,70.46,0,0,1-10.56-5c-17.89-10.77-30.36-31.08-33.42-52.22A63,63,0,0,1,356.64,333.21Z" style="fill:#f3ab98"/>
            <path d="M362.12,321.72c.42-14.15,6.42-28.15,14.53-38.66a68.53,68.53,0,0,1,93.62-16.35,70,70,0,0,1,6.29,4.79c26,20.07,29,59.07,14.74,87.21a59.22,59.22,0,0,1-4.6,6.43,69.89,69.89,0,0,1-7.3,7.6c-19.5,16.68-49.85,20.7-74.48,11.61a68.86,68.86,0,0,1-10.16-4.7c-17.22-10.08-29.22-29.08-32.16-48.85A57.52,57.52,0,0,1,362.12,321.72Z" style="fill:#fff;stroke:#592d3d;stroke-miterlimit:10;stroke-width:12px"/>
            <circle cx="431.96" cy="323.53" r="12.24" style="fill:#592d3d"/>
            <path d="M491.61,390.86c-10.23,5.05-20.33,9.55-31.35,12.69a99.23,99.23,0,0,1-16.45,3.3,143,143,0,0,1-17.69.3,147.36,147.36,0,0,1-20.4-1.92c-1.93-.32-4.13.5-4.61,2.62-.41,1.81.55,4.27,2.62,4.61a164,164,0,0,0,19.66,2.1c3.18.14,6.37.06,9.55.17a80.73,80.73,0,0,0,9.07-.22c12-1,23.62-4.28,34.75-8.76,6.33-2.54,12.52-5.4,18.63-8.41a3.75,3.75,0,1,0-3.78-6.48Z" style="fill:#592d3d"/>
        </g>
    </g>
</svg>
