<svg xmlns="http://www.w3.org/2000/svg" viewBox="0 0 1000 1000"><g id="face"><path d="M499.92,896s302.13-145,231.4-263.34c0,0-16.43,37.09-84.34,37.09-76.3,0-55.08-98.18-147.06-98.18-81.42,0-78.69,98.61-149.18,98.61-62.18,0-82.22-37.52-82.22-37.52C189.73,758.92,499.92,896,499.92,896Z" style="fill:#fff"/><path d="M268.52,632.64c-18.86,30.22-15.42,61.07.7,90.5,2.77-3.42,3.7-8.39,1.77-15.46-10.18-37.45,11.06-53.87,11.06-53.87l-1.8-7.33C271.92,639,268.52,632.64,268.52,632.64Z" style="fill:#e2e2e2"/><path d="M499.92,896s302.13-145,231.4-263.34c0,0-16.43,37.09-84.34,37.09-76.3,0-55.08-98.18-147.06-98.18-81.42,0-78.69,98.61-149.18,98.61-62.18,0-82.22-37.52-82.22-37.52C189.73,758.92,499.92,896,499.92,896Z" style="fill:none;stroke:#592d3d;stroke-miterlimit:10;stroke-width:12px"/><path d="M271.82,695.86s-5.14,64.23,0,73,33.09,0,33.09,0l3.73-19.73Z" style="fill:#fff"/><path d="M411.83,809.4s-8.38,61.24,0,69.62,53.9,0,53.9,0V850.6Z" style="fill:#fff"/><path d="M356.67,780.62s-8.42,61.61,0,70,54.24,0,54.24,0L402,793.22Z" style="fill:#fff"/><path d="M308,754.18s-7.34,53.65,0,61,47.23,0,47.23,0l-6-34.55Z" style="fill:#fff"/><rect x="465.73" y="860.85" width="69.82" height="53.49" rx="19.11" style="fill:#fff"/><path d="M459.73,895.23a85.06,85.06,0,0,1,0-9.58q.27-4.78.86-9.57c.2-1.6.4-3.2.65-4.79s.49-3.2.85-4.79a34.86,34.86,0,0,1,3.59-9.58,34.51,34.51,0,0,1,3.58,9.58c.37,1.59.63,3.19.86,4.79s.45,3.19.64,4.79c.39,3.19.69,6.38.86,9.57a87.49,87.49,0,0,1,.06,9.58Z" style="fill:#592d3d"/><path d="M728.75,690.86s5.14,64.23,0,73-33.09,0-33.09,0l-3.73-19.73Z" style="fill:#fff"/><path d="M588.74,804.4s8.38,61.24,0,69.62-53.9,0-53.9,0V845.6Z" style="fill:#fff"/><path d="M643.89,775.62s8.43,61.61,0,70-54.23,0-54.23,0l8.89-57.44Z" style="fill:#fff"/><path d="M692.62,749.18s7.34,53.65,0,61-47.23,0-47.23,0l6-34.55Z" style="fill:#fff"/><path d="M535.93,868.12c10,1.53,20.28,3,30.26,3.57a74.3,74.3,0,0,0,14.38-.22,23,23,0,0,0,2.91-.62,9,9,0,0,0,1.48-.61c-.05.07.1-.06.26-.31a7.82,7.82,0,0,0,.55-1.09,21.22,21.22,0,0,0,1-3,97.09,97.09,0,0,0,2.36-14.67c.47-5.08.83-10.24,1.17-15.41.71-10.35,1.34-20.78,2.48-31.32,1.29,5.15,2.21,10.35,3,15.57s1.35,10.46,1.73,15.73.56,10.56.49,15.91c0,2.67-.11,5.36-.29,8.08a71.06,71.06,0,0,1-1,8.34,33.06,33.06,0,0,1-1.17,4.48,18,18,0,0,1-1,2.48,11.8,11.8,0,0,1-2,2.85,14.84,14.84,0,0,1-5.24,3.3,29.05,29.05,0,0,1-4.67,1.35,62,62,0,0,1-8.61,1c-2.79.13-5.54.18-8.25.08-5.44-.16-10.78-.57-16.09-1.2s-10.51-1.4-15.85-2.44Z" style="fill:#592d3d"/><path d="M592.45,848.16c9.8-.31,19.86-.74,29.53-1.83a80.82,80.82,0,0,0,13.81-2.55,24.18,24.18,0,0,0,2.8-1,10.37,10.37,0,0,0,1-.55c.15-.08.24-.16.36-.23l.11-.08s0,0,0,0,.12-.06.26-.35a6.69,6.69,0,0,0,.45-1,22.06,22.06,0,0,0,.71-2.95,84.16,84.16,0,0,0,.88-14.27c0-4.94-.25-9.94-.47-14.95-.42-10.05-1-20.17-1-30.45a150.3,150.3,0,0,1,4.7,14.65q2,7.41,3.44,15c1,5.05,1.71,10.14,2.19,15.32.25,2.59.44,5.2.53,7.86a61.51,61.51,0,0,1-.18,8.21,31.43,31.43,0,0,1-.77,4.5,18.37,18.37,0,0,1-.86,2.52,11.71,11.71,0,0,1-1.71,2.88c-.21.24-.46.54-.65.73l-.58.55c-.38.33-.77.67-1.14.93a19.9,19.9,0,0,1-2.22,1.42,30.74,30.74,0,0,1-4.21,1.9,63.27,63.27,0,0,1-8,2.29c-2.64.59-5.24,1.08-7.85,1.46-5.21.76-10.37,1.3-15.54,1.62s-10.27.49-15.55.44Z" style="fill:#592d3d"/><path d="M647.86,808.9c9,.32,18.24.59,27.06.07,2.21-.12,4.39-.3,6.47-.59a33.42,33.42,0,0,0,5.69-1.22,9.48,9.48,0,0,0,1.67-.73c.17-.14-.08.16,0,.06a3.53,3.53,0,0,0,.38-.68,26.25,26.25,0,0,0,1.49-5.58,115.88,115.88,0,0,0,1.48-13.36c.27-4.57.49-9.18.71-13.81.45-9.27.87-18.6,1.81-28,1.31,4.57,2.3,9.19,3.14,13.82s1.51,9.31,2,14,.87,9.41,1,14.17a127.21,127.21,0,0,1-.27,14.55c-.11,1.26-.29,2.53-.52,3.85A25.93,25.93,0,0,1,699,809.6a15.34,15.34,0,0,1-1.13,2.47,11,11,0,0,1-2.25,2.66,17.13,17.13,0,0,1-4.43,2.66,38.71,38.71,0,0,1-7.83,2.28c-2.51.49-5,.82-7.42,1.09-4.88.46-9.69.69-14.48.68q-3.6,0-7.17-.13c-2.4-.08-4.73-.23-7.21-.44Z" style="fill:#592d3d"/><path d="M728.75,690.86c1.91,9,3.24,18,4.34,27.06s1.84,18.18,2,27.41c.06,2.32.05,4.64,0,7s-.16,4.71-.46,7.21a30.37,30.37,0,0,1-.73,4,12.6,12.6,0,0,1-1,2.53,11.71,11.71,0,0,1-1.72,2.51,14,14,0,0,1-4.14,3.1,24.85,24.85,0,0,1-4.07,1.63,39,39,0,0,1-7.68,1.46,58.91,58.91,0,0,1-7.35.33c-2.42,0-4.81-.15-7.18-.36s-4.67-.54-7.16-1l2-11.83,3.13.35,3.22.33c2.14.23,4.28.39,6.4.54s4.22.2,6.26.2a45.2,45.2,0,0,0,5.79-.43,15.71,15.71,0,0,0,2.37-.55,10.23,10.23,0,0,0,1.49-.65,2.72,2.72,0,0,0,.32-.2,2,2,0,0,0,.29-.63,18.94,18.94,0,0,0,.66-2.67,109.44,109.44,0,0,0,1.27-13c.46-8.92.65-18,.89-27S728.22,700,728.75,690.86Z" style="fill:#592d3d"/><path d="M535.55,895.23a19.11,19.11,0,0,1-19.11,19.11H484.83a19.1,19.1,0,0,1-19.1-19.11" style="fill:none;stroke:#592d3d;stroke-miterlimit:10;stroke-width:12px"/><path d="M535.55,856.92a34.51,34.51,0,0,1,3.58,9.58c.37,1.59.63,3.19.86,4.79s.44,3.19.64,4.79c.39,3.19.69,6.38.86,9.57a87.49,87.49,0,0,1,.06,9.58h-12a85.06,85.06,0,0,1,.05-9.58q.27-4.78.86-9.57c.2-1.6.4-3.2.65-4.79s.48-3.2.85-4.79A34.23,34.23,0,0,1,535.55,856.92Z" style="fill:#592d3d"/><path d="M358.35,790.41,354,805.63c-1.47,18.12-2.14,40.23,2.66,45s22.34,4.11,36.14,2.59C358.48,842.74,375.63,765.53,358.35,790.41Z" style="fill:#e2e2e2"/><path d="M466.81,884.92c-5.34,1-10.53,1.84-15.85,2.44s-10.65,1-16.09,1.2c-2.71.1-5.46.05-8.25-.08a61.8,61.8,0,0,1-8.61-1,29.05,29.05,0,0,1-4.67-1.35,15,15,0,0,1-5.25-3.3,12.39,12.39,0,0,1-2-2.85,19.15,19.15,0,0,1-1-2.48,31.65,31.65,0,0,1-1.17-4.48,67,67,0,0,1-1-8.34c-.18-2.72-.26-5.41-.29-8.08-.07-5.35.11-10.64.49-15.91s.95-10.51,1.72-15.73,1.7-10.42,3-15.57c1.14,10.54,1.77,21,2.48,31.32.34,5.17.69,10.33,1.17,15.41a97.09,97.09,0,0,0,2.36,14.67,22.59,22.59,0,0,0,1,3,10.88,10.88,0,0,0,.55,1.09c.17.25.31.38.27.31a9,9,0,0,0,1.48.61,23.17,23.17,0,0,0,2.9.62,74.42,74.42,0,0,0,14.39.22c10-.62,20.28-2,30.26-3.57Z" style="fill:#592d3d"/><path d="M408.11,865.16c-5.28.05-10.37-.1-15.55-.44s-10.33-.86-15.54-1.62c-2.61-.38-5.21-.87-7.85-1.46a63.27,63.27,0,0,1-8-2.29,30.74,30.74,0,0,1-4.21-1.9,19,19,0,0,1-2.22-1.42c-.37-.26-.76-.6-1.14-.93l-.58-.55c-.19-.19-.45-.49-.65-.73a11.71,11.71,0,0,1-1.71-2.88,18.37,18.37,0,0,1-.86-2.52,31.43,31.43,0,0,1-.77-4.5,61.51,61.51,0,0,1-.18-8.21c.09-2.66.28-5.27.53-7.86.48-5.18,1.24-10.27,2.19-15.32s2.09-10,3.44-15a150.3,150.3,0,0,1,4.7-14.65c-.07,10.28-.61,20.4-1,30.45-.22,5-.42,10-.47,14.95a84.16,84.16,0,0,0,.88,14.27,22.06,22.06,0,0,0,.71,2.95,6.69,6.69,0,0,0,.45,1c.13.29.27.39.26.35s-.06,0,0,0l.11.08c.12.07.21.15.36.23a10.37,10.37,0,0,0,1,.55,24.18,24.18,0,0,0,2.8,1,80.82,80.82,0,0,0,13.81,2.55c9.66,1.09,19.73,1.52,29.53,1.83Z" style="fill:#592d3d"/><path d="M306.25,769.07c-1.6,16.45-3.12,41.28,1.7,46.1,5.56,5.56,29.77,2.7,41.21,1C316.09,816.39,317.63,772.28,306.25,769.07Z" style="fill:#e2e2e2"/><path d="M353.54,825.87c-2.48.21-4.81.36-7.21.44s-4.77.14-7.17.13c-4.79,0-9.6-.22-14.48-.68-2.45-.27-4.91-.6-7.42-1.09a38.53,38.53,0,0,1-7.83-2.28,17.13,17.13,0,0,1-4.43-2.66,11,11,0,0,1-2.25-2.66,15.34,15.34,0,0,1-1.13-2.47,25.93,25.93,0,0,1-1.08-4.19c-.23-1.32-.41-2.59-.52-3.85a127.21,127.21,0,0,1-.27-14.55c.12-4.76.49-9.48,1-14.17s1.18-9.36,2-14,1.83-9.25,3.14-13.82c.94,9.44,1.36,18.77,1.81,28,.22,4.63.44,9.24.71,13.81a115.88,115.88,0,0,0,1.48,13.36,26.25,26.25,0,0,0,1.49,5.58,3.53,3.53,0,0,0,.38.68c.12.1-.13-.2,0-.06a9.48,9.48,0,0,0,1.67.73,33.42,33.42,0,0,0,5.69,1.22c2.08.29,4.26.47,6.47.59,8.82.52,18.09.25,27.06-.07Z" style="fill:#592d3d"/><path d="M304.91,768.88c-31,2.49-24.92-61.2-33.92-61.2h0c-1.2,19-2.91,54.8.83,61.2C277,777.66,304.91,768.88,304.91,768.88Z" style="fill:#e2e2e2"/><path d="M271.82,695.86c.53,9.15.74,18.24,1,27.31s.42,18.11.89,27a109.44,109.44,0,0,0,1.27,13,18.94,18.94,0,0,0,.66,2.67,2,2,0,0,0,.29.63,2.72,2.72,0,0,0,.32.2,10.23,10.23,0,0,0,1.49.65,15.71,15.71,0,0,0,2.37.55,45.2,45.2,0,0,0,5.79.43c2,0,4.14-.08,6.26-.2s4.26-.31,6.4-.54l3.22-.33,3.13-.35,2,11.83c-2.49.48-4.76.79-7.16,1s-4.76.36-7.18.36a58.91,58.91,0,0,1-7.35-.33,39,39,0,0,1-7.68-1.46,24.5,24.5,0,0,1-4.07-1.63,14,14,0,0,1-4.14-3.1,11.36,11.36,0,0,1-1.72-2.51,12.6,12.6,0,0,1-1-2.53,30.37,30.37,0,0,1-.73-4c-.3-2.5-.4-4.86-.46-7.21s-.07-4.67,0-7c.21-9.23,1-18.33,2.05-27.41S269.91,704.82,271.82,695.86Z" style="fill:#592d3d"/><circle cx="389.46" cy="731.65" r="4.18" style="fill:#592d3d"/><circle cx="401.11" cy="723.4" r="2.96" style="fill:#592d3d"/><circle cx="436.19" cy="776.31" r="2.96" style="fill:#592d3d"/><circle cx="541.97" cy="779.64" r="2.96" style="fill:#592d3d"/><circle cx="552.77" cy="772.82" r="2.96" style="fill:#592d3d"/><circle cx="563.65" cy="793.11" r="2.96" style="fill:#592d3d"/><circle cx="552.77" cy="747.56" r="2.96" style="fill:#592d3d"/><circle cx="432.2" cy="764.41" r="5.37" style="fill:#592d3d"/><circle cx="445.33" cy="760.12" r="2.09" style="fill:#592d3d"/><circle cx="618.65" cy="735" r="4.18" style="fill:#592d3d"/><circle cx="500" cy="841.13" r="4.18" style="fill:#592d3d"/><circle cx="626.67" cy="716.29" r="2.96" style="fill:#592d3d"/><circle cx="637.76" cy="726.13" r="2.96" style="fill:#592d3d"/></g><g id="artboard_mask" data-name="artboard mask"><rect x="-3420" y="-225.41" width="7667.25" height="229.24" style="fill:#606161"/></g></svg>